<mxfile host="65bd71144e">
    <diagram id="RhddXV-z2zho_KPmX8YU" name="SW Architecture">
        <mxGraphModel dx="599" dy="540" grid="1" gridSize="10" guides="1" tooltips="1" connect="1" arrows="1" fold="1" page="1" pageScale="1" pageWidth="850" pageHeight="1100" math="0" shadow="0">
            <root>
                <mxCell id="0"/>
                <mxCell id="1" parent="0"/>
                <mxCell id="57" value="" style="whiteSpace=wrap;html=1;fontSize=14;verticalAlign=top;fillColor=none;dashed=1;strokeWidth=2;" parent="1" vertex="1">
                    <mxGeometry x="30" y="11" width="620" height="690" as="geometry"/>
                </mxCell>
                <mxCell id="18" value="Manager Stack" style="whiteSpace=wrap;html=1;fillColor=#a0522d;strokeColor=#6D1F00;fontColor=#ffffff;verticalAlign=top;fontStyle=1;fontSize=14;" parent="1" vertex="1">
                    <mxGeometry x="40" y="371" width="300" height="300" as="geometry"/>
                </mxCell>
                <mxCell id="17" value="ELK Stack" style="whiteSpace=wrap;html=1;fillColor=#76608a;strokeColor=#432D57;fontColor=#ffffff;verticalAlign=top;fontStyle=1;fontSize=14;" parent="1" vertex="1">
                    <mxGeometry x="40" y="21" width="300" height="310" as="geometry"/>
                </mxCell>
                <mxCell id="4" value="" style="edgeStyle=orthogonalEdgeStyle;rounded=0;orthogonalLoop=1;jettySize=auto;html=1;fillColor=#647687;strokeColor=#314354;" parent="1" source="2" target="3" edge="1">
                    <mxGeometry relative="1" as="geometry"/>
                </mxCell>
                <mxCell id="2" value="Elastic" style="whiteSpace=wrap;html=1;fillColor=#647687;strokeColor=#314354;fontColor=#ffffff;" parent="1" vertex="1">
                    <mxGeometry x="60" y="151" width="120" height="60" as="geometry"/>
                </mxCell>
                <mxCell id="3" value="Kibana" style="whiteSpace=wrap;html=1;fillColor=#647687;strokeColor=#314354;fontColor=#ffffff;" parent="1" vertex="1">
                    <mxGeometry x="60" y="71" width="120" height="60" as="geometry"/>
                </mxCell>
                <mxCell id="10" style="edgeStyle=orthogonalEdgeStyle;rounded=0;orthogonalLoop=1;jettySize=auto;html=1;entryX=0.5;entryY=1;entryDx=0;entryDy=0;fillColor=#647687;strokeColor=#314354;" parent="1" source="5" target="2" edge="1">
                    <mxGeometry relative="1" as="geometry"/>
                </mxCell>
                <mxCell id="5" value="Logstash" style="whiteSpace=wrap;html=1;fillColor=#647687;strokeColor=#314354;fontColor=#ffffff;" parent="1" vertex="1">
                    <mxGeometry x="60" y="241" width="120" height="60" as="geometry"/>
                </mxCell>
                <mxCell id="9" value="" style="edgeStyle=orthogonalEdgeStyle;rounded=0;orthogonalLoop=1;jettySize=auto;html=1;fillColor=#647687;strokeColor=#314354;" parent="1" source="7" target="2" edge="1">
                    <mxGeometry relative="1" as="geometry"/>
                </mxCell>
                <mxCell id="7" value="Filebeat" style="whiteSpace=wrap;html=1;fillColor=#647687;strokeColor=#314354;fontColor=#ffffff;" parent="1" vertex="1">
                    <mxGeometry x="210" y="151" width="120" height="60" as="geometry"/>
                </mxCell>
                <mxCell id="13" style="edgeStyle=orthogonalEdgeStyle;rounded=0;orthogonalLoop=1;jettySize=auto;html=1;entryX=1;entryY=0.5;entryDx=0;entryDy=0;exitX=0.5;exitY=0;exitDx=0;exitDy=0;" parent="1" source="11" target="7" edge="1">
                    <mxGeometry relative="1" as="geometry"/>
                </mxCell>
                <mxCell id="55" style="edgeStyle=orthogonalEdgeStyle;rounded=0;orthogonalLoop=1;jettySize=auto;html=1;entryX=1;entryY=0.5;entryDx=0;entryDy=0;fontSize=14;" parent="1" source="11" target="39" edge="1">
                    <mxGeometry relative="1" as="geometry">
                        <Array as="points">
                            <mxPoint x="435" y="611"/>
                        </Array>
                    </mxGeometry>
                </mxCell>
                <mxCell id="11" value="Mosquitto &lt;br&gt;(IoT Message Bus)" style="whiteSpace=wrap;html=1;fillColor=#647687;strokeColor=#314354;fontColor=#ffffff;" parent="1" vertex="1">
                    <mxGeometry x="370" y="331" width="130" height="60" as="geometry"/>
                </mxCell>
                <mxCell id="29" style="edgeStyle=orthogonalEdgeStyle;rounded=0;orthogonalLoop=1;jettySize=auto;html=1;entryX=0.25;entryY=1;entryDx=0;entryDy=0;fontSize=14;" parent="1" source="21" target="11" edge="1">
                    <mxGeometry relative="1" as="geometry"/>
                </mxCell>
                <mxCell id="37" value="" style="edgeStyle=orthogonalEdgeStyle;rounded=0;orthogonalLoop=1;jettySize=auto;html=1;fontSize=14;" parent="1" source="21" target="36" edge="1">
                    <mxGeometry relative="1" as="geometry"/>
                </mxCell>
                <mxCell id="50" style="edgeStyle=none;rounded=0;orthogonalLoop=1;jettySize=auto;html=1;fontSize=14;" parent="1" source="21" target="39" edge="1">
                    <mxGeometry relative="1" as="geometry"/>
                </mxCell>
                <mxCell id="21" value="Dev API" style="whiteSpace=wrap;html=1;fillColor=#647687;strokeColor=#314354;fontColor=#ffffff;" parent="1" vertex="1">
                    <mxGeometry x="196" y="491" width="120" height="60" as="geometry"/>
                </mxCell>
                <mxCell id="38" style="edgeStyle=orthogonalEdgeStyle;rounded=0;orthogonalLoop=1;jettySize=auto;html=1;fontSize=14;" parent="1" source="26" target="21" edge="1">
                    <mxGeometry relative="1" as="geometry"/>
                </mxCell>
                <mxCell id="26" value="Public Website" style="whiteSpace=wrap;html=1;fillColor=#647687;strokeColor=#314354;fontColor=#ffffff;" parent="1" vertex="1">
                    <mxGeometry x="196" y="411" width="120" height="60" as="geometry"/>
                </mxCell>
                <mxCell id="41" style="edgeStyle=orthogonalEdgeStyle;rounded=0;orthogonalLoop=1;jettySize=auto;html=1;entryX=1;entryY=0.5;entryDx=0;entryDy=0;fontSize=14;" parent="1" source="34" target="42" edge="1">
                    <mxGeometry relative="1" as="geometry"/>
                </mxCell>
                <mxCell id="34" value="Participant" style="whiteSpace=wrap;html=1;fillColor=#647687;strokeColor=#314354;fontColor=#ffffff;" parent="1" vertex="1">
                    <mxGeometry x="680" y="331" width="120" height="60" as="geometry"/>
                </mxCell>
                <mxCell id="36" value="PostgresSQL" style="whiteSpace=wrap;html=1;fillColor=#647687;strokeColor=#314354;fontColor=#ffffff;" parent="1" vertex="1">
                    <mxGeometry x="50" y="581" width="120" height="60" as="geometry"/>
                </mxCell>
                <mxCell id="52" style="edgeStyle=orthogonalEdgeStyle;rounded=0;orthogonalLoop=1;jettySize=auto;html=1;entryX=0.5;entryY=1;entryDx=0;entryDy=0;fontSize=14;" parent="1" source="39" target="11" edge="1">
                    <mxGeometry relative="1" as="geometry"/>
                </mxCell>
                <mxCell id="53" style="edgeStyle=orthogonalEdgeStyle;rounded=0;orthogonalLoop=1;jettySize=auto;html=1;entryX=1;entryY=0.5;entryDx=0;entryDy=0;fontSize=14;" parent="1" source="39" target="36" edge="1">
                    <mxGeometry relative="1" as="geometry"/>
                </mxCell>
                <mxCell id="39" value="Broker App" style="whiteSpace=wrap;html=1;fillColor=#647687;strokeColor=#314354;fontColor=#ffffff;" parent="1" vertex="1">
                    <mxGeometry x="196" y="581" width="120" height="60" as="geometry"/>
                </mxCell>
                <mxCell id="54" style="edgeStyle=orthogonalEdgeStyle;rounded=0;orthogonalLoop=1;jettySize=auto;html=1;fontSize=14;" parent="1" source="42" target="34" edge="1">
                    <mxGeometry relative="1" as="geometry"/>
                </mxCell>
                <mxCell id="42" value="Topics:&lt;br&gt;Bid, Exchange, Settlement, Info" style="shape=process;whiteSpace=wrap;html=1;backgroundOutline=1;fillColor=#6d8764;strokeColor=#3A5431;fontColor=#ffffff;" parent="1" vertex="1">
                    <mxGeometry x="500" y="331" width="120" height="60" as="geometry"/>
                </mxCell>
                <mxCell id="44" value="Open-ElecBay Software Architecture&lt;br&gt;" style="text;html=1;resizable=0;autosize=1;align=center;verticalAlign=middle;points=[];fillColor=none;strokeColor=none;rounded=0;fontSize=14;fontStyle=1" parent="1" vertex="1">
                    <mxGeometry x="360" y="21" width="260" height="20" as="geometry"/>
                </mxCell>
                <mxCell id="58" value="&lt;div style=&quot;text-align: left ; font-size: 12px&quot;&gt;&lt;span style=&quot;font-size: 12px ; font-weight: normal&quot;&gt;Platform designed as a micro-service architecture&amp;nbsp;&lt;/span&gt;&lt;/div&gt;&lt;div style=&quot;text-align: left ; font-size: 12px&quot;&gt;&lt;span style=&quot;font-size: 12px ; font-weight: normal&quot;&gt;to be&amp;nbsp;&lt;/span&gt;&lt;span style=&quot;font-weight: normal&quot;&gt;hosted on local or cloud environment.&amp;nbsp;&lt;/span&gt;&lt;/div&gt;&lt;div style=&quot;text-align: left ; font-size: 12px&quot;&gt;&lt;span style=&quot;font-weight: normal&quot;&gt;A common message&amp;nbsp;&lt;/span&gt;&lt;span style=&quot;font-weight: normal&quot;&gt;utilizing an IoT&amp;nbsp;&lt;/span&gt;&lt;/div&gt;&lt;div style=&quot;text-align: left ; font-size: 12px&quot;&gt;&lt;span style=&quot;font-weight: normal&quot;&gt;(Internet of Things)&amp;nbsp;&amp;nbsp;&lt;/span&gt;&lt;span style=&quot;font-weight: normal&quot;&gt;protocol is leveraged to&amp;nbsp;&lt;/span&gt;&lt;/div&gt;&lt;div style=&quot;text-align: left ; font-size: 12px&quot;&gt;&lt;span style=&quot;font-weight: normal&quot;&gt;enable real-time communication&amp;nbsp;&lt;/span&gt;&lt;/div&gt;&lt;div style=&quot;text-align: left ; font-size: 12px&quot;&gt;&lt;span style=&quot;font-weight: normal&quot;&gt;with eventual consistency.&lt;/span&gt;&lt;/div&gt;" style="text;html=1;resizable=0;autosize=1;align=center;verticalAlign=middle;points=[];fillColor=none;strokeColor=none;rounded=0;fontSize=12;fontStyle=1" parent="1" vertex="1">
                    <mxGeometry x="360" y="51" width="280" height="90" as="geometry"/>
                </mxCell>
                <mxCell id="59" value="&lt;div style=&quot;text-align: left ; font-size: 12px&quot;&gt;&lt;span style=&quot;font-weight: 400&quot;&gt;External particpants&amp;nbsp; can register&lt;/span&gt;&lt;/div&gt;&lt;div style=&quot;text-align: left ; font-size: 12px&quot;&gt;&lt;span style=&quot;font-weight: 400&quot;&gt;and then send send approved&lt;/span&gt;&lt;/div&gt;&lt;div style=&quot;text-align: left ; font-size: 12px&quot;&gt;&lt;span style=&quot;font-weight: 400&quot;&gt;messages in order to particpate.&lt;/span&gt;&lt;/div&gt;" style="text;html=1;resizable=0;autosize=1;align=center;verticalAlign=middle;points=[];fillColor=none;strokeColor=none;rounded=0;fontSize=12;fontStyle=1" parent="1" vertex="1">
                    <mxGeometry x="650" y="400" width="190" height="50" as="geometry"/>
                </mxCell>
                <mxCell id="61" value="&lt;div style=&quot;text-align: left ; font-size: 12px&quot;&gt;&lt;span style=&quot;font-weight: 400&quot;&gt;Management settings&amp;nbsp;&lt;/span&gt;&lt;/div&gt;&lt;div style=&quot;text-align: left ; font-size: 12px&quot;&gt;&lt;span style=&quot;font-weight: 400&quot;&gt;are set by the Distribution&amp;nbsp;&lt;/span&gt;&lt;/div&gt;&lt;div style=&quot;text-align: left ; font-size: 12px&quot;&gt;&lt;span style=&quot;font-weight: 400&quot;&gt;Service Operators to set&amp;nbsp;&lt;/span&gt;&lt;/div&gt;&lt;div style=&quot;text-align: left ; font-size: 12px&quot;&gt;&lt;span style=&quot;font-weight: 400&quot;&gt;constraints and manage&amp;nbsp;&lt;/span&gt;&lt;/div&gt;&lt;div style=&quot;text-align: left ; font-size: 12px&quot;&gt;&lt;span style=&quot;font-weight: 400&quot;&gt;security/registration.&lt;/span&gt;&lt;/div&gt;" style="text;html=1;resizable=0;autosize=1;align=center;verticalAlign=middle;points=[];fillColor=none;strokeColor=none;rounded=0;fontSize=12;fontStyle=1" parent="1" vertex="1">
                    <mxGeometry x="45" y="411" width="150" height="80" as="geometry"/>
                </mxCell>
                <mxCell id="62" value="&lt;div style=&quot;text-align: left ; font-size: 12px&quot;&gt;&lt;span style=&quot;font-weight: 400&quot;&gt;Historian/Logging and&amp;nbsp;&lt;/span&gt;&lt;/div&gt;&lt;div style=&quot;text-align: left ; font-size: 12px&quot;&gt;&lt;span style=&quot;font-weight: 400&quot;&gt;Metric Monitoring of&amp;nbsp;&lt;/span&gt;&lt;/div&gt;&lt;div style=&quot;text-align: left ; font-size: 12px&quot;&gt;&lt;span style=&quot;font-weight: 400&quot;&gt;Market transactions.&lt;/span&gt;&lt;/div&gt;&lt;div style=&quot;text-align: left ; font-size: 12px&quot;&gt;&lt;span style=&quot;font-weight: 400&quot;&gt;Visualization dashboards&lt;/span&gt;&lt;/div&gt;&lt;div style=&quot;text-align: left ; font-size: 12px&quot;&gt;&lt;span style=&quot;font-weight: 400&quot;&gt;for trending activity&lt;/span&gt;&lt;/div&gt;" style="text;html=1;resizable=0;autosize=1;align=center;verticalAlign=middle;points=[];fillColor=none;strokeColor=none;rounded=0;fontSize=12;fontStyle=1" parent="1" vertex="1">
                    <mxGeometry x="190" y="61" width="150" height="80" as="geometry"/>
                </mxCell>
                <mxCell id="63" value="&lt;div style=&quot;text-align: left ; font-size: 12px&quot;&gt;&lt;span style=&quot;font-weight: 400&quot;&gt;Message broker utilizing MQTT&amp;nbsp;&lt;/span&gt;&lt;/div&gt;&lt;div style=&quot;text-align: left ; font-size: 12px&quot;&gt;&lt;span style=&quot;font-weight: 400&quot;&gt;protocol, hosting several topics&lt;/span&gt;&lt;/div&gt;&lt;div style=&quot;text-align: left ; font-size: 12px&quot;&gt;&lt;span style=&quot;font-weight: 400&quot;&gt;that multiple clients cna publish&lt;/span&gt;&lt;/div&gt;&lt;div style=&quot;text-align: left ; font-size: 12px&quot;&gt;&lt;span style=&quot;font-weight: 400&quot;&gt;and subscribe too. Manages&lt;/span&gt;&lt;/div&gt;&lt;div style=&quot;text-align: left ; font-size: 12px&quot;&gt;&lt;span style=&quot;font-weight: 400&quot;&gt;QOS and persistence.&lt;/span&gt;&lt;/div&gt;" style="text;html=1;resizable=0;autosize=1;align=center;verticalAlign=middle;points=[];fillColor=none;strokeColor=none;rounded=0;fontSize=12;fontStyle=1" parent="1" vertex="1">
                    <mxGeometry x="440" y="400" width="190" height="80" as="geometry"/>
                </mxCell>
                <mxCell id="64" value="Participant" style="whiteSpace=wrap;html=1;fillColor=#647687;strokeColor=#314354;fontColor=#ffffff;" parent="1" vertex="1">
                    <mxGeometry x="685" y="320" width="120" height="60" as="geometry"/>
                </mxCell>
                <mxCell id="65" value="Participant" style="whiteSpace=wrap;html=1;fillColor=#647687;strokeColor=#314354;fontColor=#ffffff;" parent="1" vertex="1">
                    <mxGeometry x="690" y="311" width="120" height="60" as="geometry"/>
                </mxCell>
            </root>
        </mxGraphModel>
    </diagram>
    <diagram id="-Wt7N-Y4eYBNkdmQmi1C" name="Metered Volume Contract Process">
        <mxGraphModel dx="599" dy="-560" grid="1" gridSize="10" guides="1" tooltips="1" connect="1" arrows="1" fold="1" page="1" pageScale="1" pageWidth="850" pageHeight="1100" math="0" shadow="0">
            <root>
                <mxCell id="_VPNVBOUFsq6VEltP7iw-0"/>
                <mxCell id="_VPNVBOUFsq6VEltP7iw-1" parent="_VPNVBOUFsq6VEltP7iw-0"/>
                <mxCell id="_VPNVBOUFsq6VEltP7iw-2" value="Settlement Period Contracting" style="shape=table;childLayout=tableLayout;rowLines=0;columnLines=0;startSize=40;html=1;whiteSpace=wrap;collapsible=0;recursiveResize=0;expand=0;pointerEvents=0;fontStyle=1;align=center;rounded=1;fontSize=12;strokeWidth=2;fillColor=#2a2a2a;" parent="_VPNVBOUFsq6VEltP7iw-1" vertex="1">
                    <mxGeometry x="150" y="1180" width="1480" height="920" as="geometry"/>
                </mxCell>
                <mxCell id="_VPNVBOUFsq6VEltP7iw-3" value="Broker" style="swimlane;horizontal=0;points=[[0,0.5],[1,0.5]];portConstraint=eastwest;startSize=40;html=1;whiteSpace=wrap;collapsible=0;recursiveResize=0;expand=0;pointerEvents=0;fontStyle=1" parent="_VPNVBOUFsq6VEltP7iw-2" vertex="1">
                    <mxGeometry y="40" width="1480" height="294" as="geometry"/>
                </mxCell>
                <mxCell id="_VPNVBOUFsq6VEltP7iw-4" value="Start of Bidding Period" style="swimlane;connectable=0;startSize=40;html=1;whiteSpace=wrap;collapsible=0;recursiveResize=0;expand=0;pointerEvents=0;" parent="_VPNVBOUFsq6VEltP7iw-3" vertex="1">
                    <mxGeometry x="40" width="400" height="294" as="geometry"/>
                </mxCell>
                <mxCell id="_VPNVBOUFsq6VEltP7iw-5" value="Review all market Offers from Producers&amp;nbsp;" style="whiteSpace=wrap;html=1;rounded=1;fontSize=12;strokeWidth=2;fillColor=#2a2a2a;verticalAlign=middle;" parent="_VPNVBOUFsq6VEltP7iw-4" vertex="1">
                    <mxGeometry x="170" y="100" width="120" height="60" as="geometry"/>
                </mxCell>
                <mxCell id="_VPNVBOUFsq6VEltP7iw-6" value="Fits into&lt;br&gt;DSO Constraints?" style="rhombus;whiteSpace=wrap;html=1;rounded=0;strokeWidth=2;" parent="_VPNVBOUFsq6VEltP7iw-4" vertex="1">
                    <mxGeometry x="315" y="90" width="80" height="80" as="geometry"/>
                </mxCell>
                <mxCell id="_VPNVBOUFsq6VEltP7iw-7" value="" style="edgeStyle=orthogonalEdgeStyle;rounded=0;orthogonalLoop=1;jettySize=auto;html=1;fontSize=12;" parent="_VPNVBOUFsq6VEltP7iw-4" source="_VPNVBOUFsq6VEltP7iw-5" target="_VPNVBOUFsq6VEltP7iw-6" edge="1">
                    <mxGeometry relative="1" as="geometry"/>
                </mxCell>
                <mxCell id="BwZG9SwS1QtUogokw80c-0" value="Tell Particpants Bidding period started for Next Period" style="whiteSpace=wrap;html=1;rounded=1;fontSize=12;strokeWidth=2;fillColor=#2a2a2a;verticalAlign=middle;" parent="_VPNVBOUFsq6VEltP7iw-4" vertex="1">
                    <mxGeometry x="20" y="100" width="120" height="60" as="geometry"/>
                </mxCell>
                <mxCell id="_VPNVBOUFsq6VEltP7iw-8" value="Approvals and Negotiations" style="swimlane;connectable=0;startSize=40;html=1;whiteSpace=wrap;collapsible=0;recursiveResize=0;expand=0;pointerEvents=0;" parent="_VPNVBOUFsq6VEltP7iw-3" vertex="1">
                    <mxGeometry x="440" width="660" height="294" as="geometry"/>
                </mxCell>
                <mxCell id="_VPNVBOUFsq6VEltP7iw-9" value="Send offer back to Producers" style="whiteSpace=wrap;html=1;rounded=1;strokeWidth=2;" parent="_VPNVBOUFsq6VEltP7iw-8" vertex="1">
                    <mxGeometry x="33" y="180" width="120" height="60" as="geometry"/>
                </mxCell>
                <mxCell id="_VPNVBOUFsq6VEltP7iw-10" value="Publish Offers for&amp;nbsp; Consumers" style="whiteSpace=wrap;html=1;rounded=1;strokeWidth=2;" parent="_VPNVBOUFsq6VEltP7iw-8" vertex="1">
                    <mxGeometry x="163" y="103.5" width="120" height="60" as="geometry"/>
                </mxCell>
                <mxCell id="_VPNVBOUFsq6VEltP7iw-11" value="Contracts Finalized" style="swimlane;connectable=0;startSize=40;html=1;whiteSpace=wrap;collapsible=0;recursiveResize=0;expand=0;pointerEvents=0;" parent="_VPNVBOUFsq6VEltP7iw-3" vertex="1">
                    <mxGeometry x="1100" width="380" height="294" as="geometry"/>
                </mxCell>
                <mxCell id="_VPNVBOUFsq6VEltP7iw-12" value="Close bidding for Settlted Periods" style="whiteSpace=wrap;html=1;rounded=1;strokeWidth=2;" parent="_VPNVBOUFsq6VEltP7iw-11" vertex="1">
                    <mxGeometry x="220" y="130" width="120" height="60" as="geometry"/>
                </mxCell>
                <mxCell id="_VPNVBOUFsq6VEltP7iw-13" style="edgeStyle=orthogonalEdgeStyle;rounded=0;jumpStyle=arc;orthogonalLoop=1;jettySize=auto;html=1;entryX=0;entryY=0.5;entryDx=0;entryDy=0;fontSize=12;startArrow=none;startFill=0;endArrow=classic;endFill=1;" parent="_VPNVBOUFsq6VEltP7iw-11" source="_VPNVBOUFsq6VEltP7iw-14" target="_VPNVBOUFsq6VEltP7iw-12" edge="1">
                    <mxGeometry relative="1" as="geometry"/>
                </mxCell>
                <mxCell id="_VPNVBOUFsq6VEltP7iw-14" value="Gather all approved contracts" style="whiteSpace=wrap;html=1;rounded=1;strokeWidth=2;" parent="_VPNVBOUFsq6VEltP7iw-11" vertex="1">
                    <mxGeometry x="30" y="130" width="120" height="60" as="geometry"/>
                </mxCell>
                <mxCell id="_VPNVBOUFsq6VEltP7iw-15" value="No" style="edgeStyle=orthogonalEdgeStyle;rounded=0;orthogonalLoop=1;jettySize=auto;html=1;fontSize=12;entryX=0;entryY=0.25;entryDx=0;entryDy=0;" parent="_VPNVBOUFsq6VEltP7iw-3" source="_VPNVBOUFsq6VEltP7iw-6" target="_VPNVBOUFsq6VEltP7iw-9" edge="1">
                    <mxGeometry relative="1" as="geometry">
                        <Array as="points">
                            <mxPoint x="395" y="195"/>
                        </Array>
                    </mxGeometry>
                </mxCell>
                <mxCell id="_VPNVBOUFsq6VEltP7iw-16" value="Yes" style="edgeStyle=orthogonalEdgeStyle;rounded=0;orthogonalLoop=1;jettySize=auto;html=1;entryX=0;entryY=0.5;entryDx=0;entryDy=0;fontSize=12;" parent="_VPNVBOUFsq6VEltP7iw-3" source="_VPNVBOUFsq6VEltP7iw-6" target="_VPNVBOUFsq6VEltP7iw-10" edge="1">
                    <mxGeometry relative="1" as="geometry"/>
                </mxCell>
                <mxCell id="_VPNVBOUFsq6VEltP7iw-17" value="Particpant (Producer)" style="swimlane;horizontal=0;points=[[0,0.5],[1,0.5]];portConstraint=eastwest;startSize=40;html=1;whiteSpace=wrap;collapsible=0;recursiveResize=0;expand=0;pointerEvents=0;" parent="_VPNVBOUFsq6VEltP7iw-2" vertex="1">
                    <mxGeometry y="334" width="1480" height="292" as="geometry"/>
                </mxCell>
                <mxCell id="_VPNVBOUFsq6VEltP7iw-18" value="" style="swimlane;connectable=0;startSize=0;html=1;whiteSpace=wrap;collapsible=0;recursiveResize=0;expand=0;pointerEvents=0;" parent="_VPNVBOUFsq6VEltP7iw-17" vertex="1">
                    <mxGeometry x="40" width="400" height="292" as="geometry"/>
                </mxCell>
                <mxCell id="_VPNVBOUFsq6VEltP7iw-19" value="&lt;span style=&quot;text-align: left&quot;&gt;Send Offer to Market for a future Period&lt;/span&gt;" style="whiteSpace=wrap;html=1;rounded=1;fontSize=12;strokeWidth=2;fillColor=#2a2a2a;verticalAlign=middle;" parent="_VPNVBOUFsq6VEltP7iw-18" vertex="1">
                    <mxGeometry x="170" y="129.5" width="120" height="60" as="geometry"/>
                </mxCell>
                <mxCell id="_VPNVBOUFsq6VEltP7iw-20" style="edgeStyle=orthogonalEdgeStyle;rounded=0;orthogonalLoop=1;jettySize=auto;html=1;fontSize=12;" parent="_VPNVBOUFsq6VEltP7iw-18" source="_VPNVBOUFsq6VEltP7iw-21" target="_VPNVBOUFsq6VEltP7iw-19" edge="1">
                    <mxGeometry relative="1" as="geometry"/>
                </mxCell>
                <mxCell id="_VPNVBOUFsq6VEltP7iw-21" value="Review constraints, Make a new Offer&amp;nbsp;&lt;br&gt;from generation at a&amp;nbsp;&lt;br&gt;given period" style="whiteSpace=wrap;html=1;rounded=1;fontSize=12;strokeWidth=2;fillColor=#2a2a2a;verticalAlign=middle;" parent="_VPNVBOUFsq6VEltP7iw-18" vertex="1">
                    <mxGeometry x="170" y="39.5" width="120" height="60" as="geometry"/>
                </mxCell>
                <mxCell id="BwZG9SwS1QtUogokw80c-3" style="edgeStyle=orthogonalEdgeStyle;rounded=0;jumpStyle=arc;orthogonalLoop=1;jettySize=auto;html=1;fontSize=12;startArrow=none;startFill=0;endArrow=classic;endFill=1;" parent="_VPNVBOUFsq6VEltP7iw-18" source="BwZG9SwS1QtUogokw80c-2" target="_VPNVBOUFsq6VEltP7iw-19" edge="1">
                    <mxGeometry relative="1" as="geometry"/>
                </mxCell>
                <mxCell id="BwZG9SwS1QtUogokw80c-2" value="&lt;span style=&quot;text-align: left&quot;&gt;Wait for bidding to start&lt;/span&gt;" style="whiteSpace=wrap;html=1;rounded=1;fontSize=12;strokeWidth=2;fillColor=#2a2a2a;verticalAlign=middle;" parent="_VPNVBOUFsq6VEltP7iw-18" vertex="1">
                    <mxGeometry x="20" y="129.5" width="120" height="60" as="geometry"/>
                </mxCell>
                <mxCell id="_VPNVBOUFsq6VEltP7iw-22" value="" style="swimlane;connectable=0;startSize=0;html=1;whiteSpace=wrap;collapsible=0;recursiveResize=0;expand=0;pointerEvents=0;" parent="_VPNVBOUFsq6VEltP7iw-17" vertex="1">
                    <mxGeometry x="440" width="660" height="292" as="geometry"/>
                </mxCell>
                <mxCell id="_VPNVBOUFsq6VEltP7iw-23" value="Receive Bids from consumers" style="whiteSpace=wrap;html=1;rounded=1;strokeWidth=2;" parent="_VPNVBOUFsq6VEltP7iw-22" vertex="1">
                    <mxGeometry x="250" y="113" width="120" height="60" as="geometry"/>
                </mxCell>
                <mxCell id="_VPNVBOUFsq6VEltP7iw-24" style="edgeStyle=orthogonalEdgeStyle;rounded=0;jumpStyle=arc;orthogonalLoop=1;jettySize=auto;html=1;entryX=0;entryY=0.5;entryDx=0;entryDy=0;fontSize=12;startArrow=none;startFill=0;endArrow=classic;endFill=1;" parent="_VPNVBOUFsq6VEltP7iw-22" source="_VPNVBOUFsq6VEltP7iw-25" target="_VPNVBOUFsq6VEltP7iw-27" edge="1">
                    <mxGeometry relative="1" as="geometry"/>
                </mxCell>
                <mxCell id="_VPNVBOUFsq6VEltP7iw-25" value="Determine if Bid for given offer is optimal" style="whiteSpace=wrap;html=1;rounded=1;strokeWidth=2;" parent="_VPNVBOUFsq6VEltP7iw-22" vertex="1">
                    <mxGeometry x="390" y="113" width="120" height="60" as="geometry"/>
                </mxCell>
                <mxCell id="_VPNVBOUFsq6VEltP7iw-26" value="" style="edgeStyle=orthogonalEdgeStyle;rounded=0;jumpStyle=arc;orthogonalLoop=1;jettySize=auto;html=1;fontSize=12;startArrow=none;startFill=0;endArrow=classic;endFill=1;" parent="_VPNVBOUFsq6VEltP7iw-22" source="_VPNVBOUFsq6VEltP7iw-23" target="_VPNVBOUFsq6VEltP7iw-25" edge="1">
                    <mxGeometry relative="1" as="geometry"/>
                </mxCell>
                <mxCell id="_VPNVBOUFsq6VEltP7iw-27" value="Take It" style="rhombus;whiteSpace=wrap;html=1;rounded=0;strokeWidth=2;" parent="_VPNVBOUFsq6VEltP7iw-22" vertex="1">
                    <mxGeometry x="550" y="103" width="80" height="80" as="geometry"/>
                </mxCell>
                <mxCell id="_VPNVBOUFsq6VEltP7iw-28" value="Send Rejction of offer to consumer" style="whiteSpace=wrap;html=1;rounded=1;strokeWidth=2;" parent="_VPNVBOUFsq6VEltP7iw-22" vertex="1">
                    <mxGeometry x="530" y="206" width="120" height="60" as="geometry"/>
                </mxCell>
                <mxCell id="_VPNVBOUFsq6VEltP7iw-29" style="edgeStyle=orthogonalEdgeStyle;rounded=0;jumpStyle=arc;orthogonalLoop=1;jettySize=auto;html=1;entryX=0.5;entryY=0;entryDx=0;entryDy=0;fontSize=12;startArrow=none;startFill=0;endArrow=classic;endFill=1;" parent="_VPNVBOUFsq6VEltP7iw-22" source="_VPNVBOUFsq6VEltP7iw-27" target="_VPNVBOUFsq6VEltP7iw-28" edge="1">
                    <mxGeometry relative="1" as="geometry"/>
                </mxCell>
                <mxCell id="_VPNVBOUFsq6VEltP7iw-30" value="" style="swimlane;connectable=0;startSize=0;html=1;whiteSpace=wrap;collapsible=0;recursiveResize=0;expand=0;pointerEvents=0;" parent="_VPNVBOUFsq6VEltP7iw-17" vertex="1">
                    <mxGeometry x="1100" width="380" height="292" as="geometry"/>
                </mxCell>
                <mxCell id="_VPNVBOUFsq6VEltP7iw-31" value="Submit Contract Approval Request" style="whiteSpace=wrap;html=1;rounded=1;strokeWidth=2;" parent="_VPNVBOUFsq6VEltP7iw-30" vertex="1">
                    <mxGeometry x="20" y="130" width="120" height="60" as="geometry"/>
                </mxCell>
                <mxCell id="_VPNVBOUFsq6VEltP7iw-32" value="Agreed?" style="rhombus;whiteSpace=wrap;html=1;rounded=0;strokeWidth=2;" parent="_VPNVBOUFsq6VEltP7iw-30" vertex="1">
                    <mxGeometry x="165" y="122" width="80" height="80" as="geometry"/>
                </mxCell>
                <mxCell id="_VPNVBOUFsq6VEltP7iw-33" value="" style="edgeStyle=orthogonalEdgeStyle;rounded=0;jumpStyle=arc;orthogonalLoop=1;jettySize=auto;html=1;fontSize=12;startArrow=none;startFill=0;endArrow=classic;endFill=1;" parent="_VPNVBOUFsq6VEltP7iw-30" source="_VPNVBOUFsq6VEltP7iw-31" target="_VPNVBOUFsq6VEltP7iw-32" edge="1">
                    <mxGeometry relative="1" as="geometry"/>
                </mxCell>
                <mxCell id="_VPNVBOUFsq6VEltP7iw-34" value="Submit Final Contract for Period with/ Pricing and Load/Gen" style="whiteSpace=wrap;html=1;rounded=1;strokeWidth=2;" parent="_VPNVBOUFsq6VEltP7iw-30" vertex="1">
                    <mxGeometry x="144" y="16" width="120" height="60" as="geometry"/>
                </mxCell>
                <mxCell id="_VPNVBOUFsq6VEltP7iw-35" value="Yes" style="edgeStyle=orthogonalEdgeStyle;rounded=0;jumpStyle=arc;orthogonalLoop=1;jettySize=auto;html=1;fontSize=12;startArrow=none;startFill=0;endArrow=classic;endFill=1;" parent="_VPNVBOUFsq6VEltP7iw-30" source="_VPNVBOUFsq6VEltP7iw-32" target="_VPNVBOUFsq6VEltP7iw-34" edge="1">
                    <mxGeometry relative="1" as="geometry"/>
                </mxCell>
                <mxCell id="_VPNVBOUFsq6VEltP7iw-36" value="Yes" style="edgeStyle=orthogonalEdgeStyle;rounded=0;jumpStyle=arc;orthogonalLoop=1;jettySize=auto;html=1;fontSize=12;startArrow=none;startFill=0;endArrow=classic;endFill=1;entryX=0;entryY=0.5;entryDx=0;entryDy=0;" parent="_VPNVBOUFsq6VEltP7iw-17" source="_VPNVBOUFsq6VEltP7iw-27" target="_VPNVBOUFsq6VEltP7iw-31" edge="1">
                    <mxGeometry relative="1" as="geometry">
                        <mxPoint x="970" y="93" as="targetPoint"/>
                    </mxGeometry>
                </mxCell>
                <mxCell id="_VPNVBOUFsq6VEltP7iw-57" style="edgeStyle=orthogonalEdgeStyle;rounded=0;orthogonalLoop=1;jettySize=auto;html=1;entryX=0;entryY=0.5;entryDx=0;entryDy=0;fontSize=12;" parent="_VPNVBOUFsq6VEltP7iw-2" source="_VPNVBOUFsq6VEltP7iw-19" target="_VPNVBOUFsq6VEltP7iw-5" edge="1">
                    <mxGeometry relative="1" as="geometry">
                        <Array as="points">
                            <mxPoint x="190" y="466.5"/>
                            <mxPoint x="190" y="170.5"/>
                        </Array>
                    </mxGeometry>
                </mxCell>
                <mxCell id="_VPNVBOUFsq6VEltP7iw-37" value="Particpant (Consumer)" style="swimlane;horizontal=0;points=[[0,0.5],[1,0.5]];portConstraint=eastwest;startSize=40;html=1;whiteSpace=wrap;collapsible=0;recursiveResize=0;expand=0;pointerEvents=0;" parent="_VPNVBOUFsq6VEltP7iw-2" vertex="1">
                    <mxGeometry y="626" width="1480" height="294" as="geometry"/>
                </mxCell>
                <mxCell id="_VPNVBOUFsq6VEltP7iw-38" value="" style="swimlane;connectable=0;startSize=0;html=1;whiteSpace=wrap;collapsible=0;recursiveResize=0;expand=0;pointerEvents=0;" parent="_VPNVBOUFsq6VEltP7iw-37" vertex="1">
                    <mxGeometry x="40" width="400" height="294" as="geometry"/>
                </mxCell>
                <mxCell id="BwZG9SwS1QtUogokw80c-4" value="&lt;span style=&quot;text-align: left&quot;&gt;Wait for bidding to start&lt;/span&gt;" style="whiteSpace=wrap;html=1;rounded=1;fontSize=12;strokeWidth=2;fillColor=#2a2a2a;verticalAlign=middle;" parent="_VPNVBOUFsq6VEltP7iw-38" vertex="1">
                    <mxGeometry x="30" y="117" width="120" height="60" as="geometry"/>
                </mxCell>
                <mxCell id="_VPNVBOUFsq6VEltP7iw-39" value="" style="swimlane;connectable=0;startSize=0;html=1;whiteSpace=wrap;collapsible=0;recursiveResize=0;expand=0;pointerEvents=0;" parent="_VPNVBOUFsq6VEltP7iw-37" vertex="1">
                    <mxGeometry x="440" width="660" height="294" as="geometry"/>
                </mxCell>
                <mxCell id="_VPNVBOUFsq6VEltP7iw-40" value="No" style="edgeStyle=orthogonalEdgeStyle;rounded=0;jumpStyle=arc;orthogonalLoop=1;jettySize=auto;html=1;entryX=0.75;entryY=0;entryDx=0;entryDy=0;fontSize=12;startArrow=none;startFill=0;endArrow=classic;endFill=1;" parent="_VPNVBOUFsq6VEltP7iw-39" source="_VPNVBOUFsq6VEltP7iw-41" target="_VPNVBOUFsq6VEltP7iw-49" edge="1">
                    <mxGeometry relative="1" as="geometry">
                        <Array as="points">
                            <mxPoint x="370" y="57"/>
                            <mxPoint x="140" y="57"/>
                        </Array>
                    </mxGeometry>
                </mxCell>
                <mxCell id="_VPNVBOUFsq6VEltP7iw-41" value="Take It" style="rhombus;whiteSpace=wrap;html=1;rounded=0;strokeWidth=2;" parent="_VPNVBOUFsq6VEltP7iw-39" vertex="1">
                    <mxGeometry x="330" y="172" width="80" height="80" as="geometry"/>
                </mxCell>
                <mxCell id="_VPNVBOUFsq6VEltP7iw-42" value="Submit a Bid for&amp;nbsp;&lt;br&gt;the given offer" style="whiteSpace=wrap;html=1;rounded=1;strokeWidth=2;" parent="_VPNVBOUFsq6VEltP7iw-39" vertex="1">
                    <mxGeometry x="440" y="54" width="120" height="60" as="geometry"/>
                </mxCell>
                <mxCell id="_VPNVBOUFsq6VEltP7iw-43" value="" style="edgeStyle=orthogonalEdgeStyle;rounded=0;orthogonalLoop=1;jettySize=auto;html=1;fontSize=12;entryX=0;entryY=0.5;entryDx=0;entryDy=0;" parent="_VPNVBOUFsq6VEltP7iw-39" source="_VPNVBOUFsq6VEltP7iw-41" target="_VPNVBOUFsq6VEltP7iw-52" edge="1">
                    <mxGeometry relative="1" as="geometry"/>
                </mxCell>
                <mxCell id="_VPNVBOUFsq6VEltP7iw-44" value="Yes" style="edgeLabel;html=1;align=center;verticalAlign=middle;resizable=0;points=[];fontSize=12;" parent="_VPNVBOUFsq6VEltP7iw-43" vertex="1" connectable="0">
                    <mxGeometry x="0.0968" y="1" relative="1" as="geometry">
                        <mxPoint as="offset"/>
                    </mxGeometry>
                </mxCell>
                <mxCell id="_VPNVBOUFsq6VEltP7iw-45" value="Offer Available" style="rhombus;whiteSpace=wrap;html=1;rounded=0;strokeWidth=2;" parent="_VPNVBOUFsq6VEltP7iw-39" vertex="1">
                    <mxGeometry x="203" y="67" width="80" height="80" as="geometry"/>
                </mxCell>
                <mxCell id="_VPNVBOUFsq6VEltP7iw-46" value="Determine if offer is optimal for consumer" style="whiteSpace=wrap;html=1;rounded=1;strokeWidth=2;" parent="_VPNVBOUFsq6VEltP7iw-39" vertex="1">
                    <mxGeometry x="183" y="182" width="120" height="60" as="geometry"/>
                </mxCell>
                <mxCell id="_VPNVBOUFsq6VEltP7iw-47" style="edgeStyle=orthogonalEdgeStyle;rounded=0;orthogonalLoop=1;jettySize=auto;html=1;fontSize=12;" parent="_VPNVBOUFsq6VEltP7iw-39" source="_VPNVBOUFsq6VEltP7iw-46" target="_VPNVBOUFsq6VEltP7iw-41" edge="1">
                    <mxGeometry relative="1" as="geometry"/>
                </mxCell>
                <mxCell id="_VPNVBOUFsq6VEltP7iw-48" value="Yes" style="edgeStyle=orthogonalEdgeStyle;curved=1;rounded=0;orthogonalLoop=1;jettySize=auto;html=1;fontSize=12;" parent="_VPNVBOUFsq6VEltP7iw-39" source="_VPNVBOUFsq6VEltP7iw-45" target="_VPNVBOUFsq6VEltP7iw-46" edge="1">
                    <mxGeometry relative="1" as="geometry"/>
                </mxCell>
                <mxCell id="_VPNVBOUFsq6VEltP7iw-49" value="&lt;div style=&quot;text-align: left&quot;&gt;&lt;span&gt;Look for Offers&amp;nbsp;&lt;/span&gt;&lt;/div&gt;&lt;div style=&quot;text-align: left&quot;&gt;&lt;span&gt;in the forecasted&lt;/span&gt;&lt;/div&gt;&lt;div style=&quot;text-align: left&quot;&gt;&lt;span&gt;load period&lt;/span&gt;&lt;/div&gt;" style="whiteSpace=wrap;html=1;rounded=1;fontSize=12;strokeWidth=2;fillColor=#2a2a2a;verticalAlign=middle;" parent="_VPNVBOUFsq6VEltP7iw-39" vertex="1">
                    <mxGeometry x="50" y="77" width="120" height="60" as="geometry"/>
                </mxCell>
                <mxCell id="_VPNVBOUFsq6VEltP7iw-50" value="" style="edgeStyle=orthogonalEdgeStyle;curved=1;rounded=0;orthogonalLoop=1;jettySize=auto;html=1;fontSize=12;" parent="_VPNVBOUFsq6VEltP7iw-39" source="_VPNVBOUFsq6VEltP7iw-49" target="_VPNVBOUFsq6VEltP7iw-45" edge="1">
                    <mxGeometry relative="1" as="geometry"/>
                </mxCell>
                <mxCell id="_VPNVBOUFsq6VEltP7iw-51" value="No" style="edgeStyle=orthogonalEdgeStyle;curved=1;rounded=0;jumpStyle=arc;orthogonalLoop=1;jettySize=auto;html=1;entryX=0.5;entryY=1;entryDx=0;entryDy=0;fontSize=12;startArrow=none;startFill=0;endArrow=classic;endFill=1;" parent="_VPNVBOUFsq6VEltP7iw-39" source="_VPNVBOUFsq6VEltP7iw-52" target="_VPNVBOUFsq6VEltP7iw-42" edge="1">
                    <mxGeometry relative="1" as="geometry"/>
                </mxCell>
                <mxCell id="_VPNVBOUFsq6VEltP7iw-52" value="Contract&lt;br&gt;Approval?" style="rhombus;whiteSpace=wrap;html=1;rounded=0;strokeWidth=2;" parent="_VPNVBOUFsq6VEltP7iw-39" vertex="1">
                    <mxGeometry x="460" y="172" width="80" height="80" as="geometry"/>
                </mxCell>
                <mxCell id="_VPNVBOUFsq6VEltP7iw-53" value="" style="swimlane;connectable=0;startSize=0;html=1;whiteSpace=wrap;collapsible=0;recursiveResize=0;expand=0;pointerEvents=0;" parent="_VPNVBOUFsq6VEltP7iw-37" vertex="1">
                    <mxGeometry x="1100" width="380" height="294" as="geometry"/>
                </mxCell>
                <mxCell id="_VPNVBOUFsq6VEltP7iw-54" value="Approve Contract" style="whiteSpace=wrap;html=1;rounded=1;strokeWidth=2;" parent="_VPNVBOUFsq6VEltP7iw-53" vertex="1">
                    <mxGeometry x="144" y="182" width="120" height="60" as="geometry"/>
                </mxCell>
                <mxCell id="_VPNVBOUFsq6VEltP7iw-55" value="Yes" style="edgeStyle=orthogonalEdgeStyle;rounded=0;jumpStyle=arc;orthogonalLoop=1;jettySize=auto;html=1;entryX=0;entryY=0.5;entryDx=0;entryDy=0;fontSize=12;startArrow=none;startFill=0;endArrow=classic;endFill=1;" parent="_VPNVBOUFsq6VEltP7iw-37" source="_VPNVBOUFsq6VEltP7iw-52" target="_VPNVBOUFsq6VEltP7iw-54" edge="1">
                    <mxGeometry relative="1" as="geometry"/>
                </mxCell>
                <mxCell id="BwZG9SwS1QtUogokw80c-6" style="edgeStyle=orthogonalEdgeStyle;rounded=0;jumpStyle=arc;orthogonalLoop=1;jettySize=auto;html=1;entryX=0;entryY=0.75;entryDx=0;entryDy=0;fontSize=12;startArrow=none;startFill=0;endArrow=classic;endFill=1;" parent="_VPNVBOUFsq6VEltP7iw-37" source="BwZG9SwS1QtUogokw80c-4" target="_VPNVBOUFsq6VEltP7iw-49" edge="1">
                    <mxGeometry relative="1" as="geometry"/>
                </mxCell>
                <mxCell id="_VPNVBOUFsq6VEltP7iw-56" style="edgeStyle=orthogonalEdgeStyle;rounded=0;orthogonalLoop=1;jettySize=auto;html=1;fontSize=12;entryX=1;entryY=0.25;entryDx=0;entryDy=0;exitX=0.5;exitY=1;exitDx=0;exitDy=0;" parent="_VPNVBOUFsq6VEltP7iw-2" source="_VPNVBOUFsq6VEltP7iw-9" target="_VPNVBOUFsq6VEltP7iw-21" edge="1">
                    <mxGeometry relative="1" as="geometry">
                        <mxPoint x="430" y="390" as="targetPoint"/>
                        <Array as="points">
                            <mxPoint x="533" y="365"/>
                        </Array>
                    </mxGeometry>
                </mxCell>
                <mxCell id="_VPNVBOUFsq6VEltP7iw-58" style="edgeStyle=orthogonalEdgeStyle;rounded=0;orthogonalLoop=1;jettySize=auto;html=1;fontSize=12;exitX=0.5;exitY=1;exitDx=0;exitDy=0;jumpStyle=arc;dashed=1;endArrow=diamond;endFill=1;dashPattern=1 1;startArrow=diamond;startFill=1;entryX=0;entryY=0.5;entryDx=0;entryDy=0;elbow=vertical;curved=1;" parent="_VPNVBOUFsq6VEltP7iw-2" source="_VPNVBOUFsq6VEltP7iw-10" target="_VPNVBOUFsq6VEltP7iw-49" edge="1">
                    <mxGeometry relative="1" as="geometry">
                        <mxPoint x="560" y="180" as="sourcePoint"/>
                        <mxPoint x="530" y="650" as="targetPoint"/>
                    </mxGeometry>
                </mxCell>
                <mxCell id="_VPNVBOUFsq6VEltP7iw-59" style="edgeStyle=orthogonalEdgeStyle;rounded=0;jumpStyle=arc;orthogonalLoop=1;jettySize=auto;html=1;entryX=0.5;entryY=1;entryDx=0;entryDy=0;fontSize=12;startArrow=none;startFill=0;endArrow=classic;endFill=1;exitX=0.5;exitY=0;exitDx=0;exitDy=0;" parent="_VPNVBOUFsq6VEltP7iw-2" source="_VPNVBOUFsq6VEltP7iw-42" target="_VPNVBOUFsq6VEltP7iw-23" edge="1">
                    <mxGeometry relative="1" as="geometry">
                        <Array as="points">
                            <mxPoint x="940" y="590"/>
                            <mxPoint x="750" y="590"/>
                        </Array>
                    </mxGeometry>
                </mxCell>
                <mxCell id="_VPNVBOUFsq6VEltP7iw-60" style="edgeStyle=orthogonalEdgeStyle;rounded=0;jumpStyle=arc;orthogonalLoop=1;jettySize=auto;html=1;entryX=0.5;entryY=1;entryDx=0;entryDy=0;fontSize=12;startArrow=none;startFill=0;endArrow=classic;endFill=1;" parent="_VPNVBOUFsq6VEltP7iw-2" source="_VPNVBOUFsq6VEltP7iw-28" target="_VPNVBOUFsq6VEltP7iw-49" edge="1">
                    <mxGeometry relative="1" as="geometry">
                        <Array as="points">
                            <mxPoint x="1030" y="900"/>
                            <mxPoint x="550" y="900"/>
                        </Array>
                    </mxGeometry>
                </mxCell>
                <mxCell id="_VPNVBOUFsq6VEltP7iw-61" style="edgeStyle=orthogonalEdgeStyle;rounded=0;jumpStyle=arc;orthogonalLoop=1;jettySize=auto;html=1;entryX=0.5;entryY=1;entryDx=0;entryDy=0;fontSize=12;startArrow=none;startFill=0;endArrow=classic;endFill=1;" parent="_VPNVBOUFsq6VEltP7iw-2" source="_VPNVBOUFsq6VEltP7iw-31" target="_VPNVBOUFsq6VEltP7iw-46" edge="1">
                    <mxGeometry relative="1" as="geometry">
                        <Array as="points">
                            <mxPoint x="1170" y="888"/>
                            <mxPoint x="683" y="888"/>
                        </Array>
                    </mxGeometry>
                </mxCell>
                <mxCell id="_VPNVBOUFsq6VEltP7iw-62" style="edgeStyle=orthogonalEdgeStyle;rounded=0;jumpStyle=arc;orthogonalLoop=1;jettySize=auto;html=1;entryX=0.5;entryY=1;entryDx=0;entryDy=0;fontSize=12;startArrow=none;startFill=0;endArrow=classic;endFill=1;" parent="_VPNVBOUFsq6VEltP7iw-2" source="_VPNVBOUFsq6VEltP7iw-54" target="_VPNVBOUFsq6VEltP7iw-32" edge="1">
                    <mxGeometry relative="1" as="geometry"/>
                </mxCell>
                <mxCell id="_VPNVBOUFsq6VEltP7iw-63" style="edgeStyle=orthogonalEdgeStyle;rounded=0;jumpStyle=arc;orthogonalLoop=1;jettySize=auto;html=1;entryX=0.5;entryY=1;entryDx=0;entryDy=0;fontSize=12;startArrow=none;startFill=0;endArrow=classic;endFill=1;" parent="_VPNVBOUFsq6VEltP7iw-2" source="_VPNVBOUFsq6VEltP7iw-34" target="_VPNVBOUFsq6VEltP7iw-14" edge="1">
                    <mxGeometry relative="1" as="geometry"/>
                </mxCell>
                <mxCell id="BwZG9SwS1QtUogokw80c-5" style="edgeStyle=orthogonalEdgeStyle;rounded=0;jumpStyle=arc;orthogonalLoop=1;jettySize=auto;html=1;fontSize=12;startArrow=none;startFill=0;endArrow=classic;endFill=1;entryX=0.5;entryY=0;entryDx=0;entryDy=0;" parent="_VPNVBOUFsq6VEltP7iw-2" source="BwZG9SwS1QtUogokw80c-0" target="BwZG9SwS1QtUogokw80c-4" edge="1">
                    <mxGeometry relative="1" as="geometry">
                        <mxPoint x="120" y="310" as="targetPoint"/>
                        <Array as="points">
                            <mxPoint x="120" y="240"/>
                            <mxPoint x="50" y="240"/>
                            <mxPoint x="50" y="710"/>
                            <mxPoint x="130" y="710"/>
                        </Array>
                    </mxGeometry>
                </mxCell>
                <mxCell id="BwZG9SwS1QtUogokw80c-1" style="edgeStyle=orthogonalEdgeStyle;rounded=0;jumpStyle=arc;orthogonalLoop=1;jettySize=auto;html=1;fontSize=12;startArrow=none;startFill=0;endArrow=classic;endFill=1;entryX=0.5;entryY=0;entryDx=0;entryDy=0;" parent="_VPNVBOUFsq6VEltP7iw-2" source="BwZG9SwS1QtUogokw80c-0" target="BwZG9SwS1QtUogokw80c-2" edge="1">
                    <mxGeometry relative="1" as="geometry">
                        <mxPoint x="40" y="470" as="targetPoint"/>
                        <Array as="points">
                            <mxPoint x="120" y="320"/>
                            <mxPoint x="120" y="320"/>
                        </Array>
                    </mxGeometry>
                </mxCell>
            </root>
        </mxGraphModel>
    </diagram>
    <diagram id="C30U0wvYt2MhRaaWM7Rp" name="Page-3">
        <mxGraphModel dx="599" dy="-560" grid="1" gridSize="10" guides="1" tooltips="1" connect="1" arrows="1" fold="1" page="1" pageScale="1" pageWidth="850" pageHeight="1100" math="0" shadow="0">
            <root>
                <mxCell id="hiWhzOmVJdowxT46B0jT-0"/>
                <mxCell id="hiWhzOmVJdowxT46B0jT-1" parent="hiWhzOmVJdowxT46B0jT-0"/>
                <mxCell id="qft-XIQNbGBDD-aqodCa-4" value="" style="edgeStyle=orthogonalEdgeStyle;curved=1;rounded=0;jumpStyle=arc;orthogonalLoop=1;jettySize=auto;html=1;fontSize=12;startArrow=none;startFill=0;endArrow=classic;endFill=1;strokeWidth=1;" parent="hiWhzOmVJdowxT46B0jT-1" source="qft-XIQNbGBDD-aqodCa-2" target="qft-XIQNbGBDD-aqodCa-23" edge="1">
                    <mxGeometry relative="1" as="geometry"/>
                </mxCell>
                <mxCell id="qft-XIQNbGBDD-aqodCa-2" value="Gate Closure for SP" style="ellipse;whiteSpace=wrap;html=1;fontSize=12;strokeWidth=2;verticalAlign=middle;strokeColor=#6D1F00;fillColor=#a0522d;fontColor=#ffffff;" parent="hiWhzOmVJdowxT46B0jT-1" vertex="1">
                    <mxGeometry x="170" y="1530" width="80" height="80" as="geometry"/>
                </mxCell>
                <mxCell id="qft-XIQNbGBDD-aqodCa-6" value="" style="edgeStyle=orthogonalEdgeStyle;curved=1;rounded=0;jumpStyle=arc;orthogonalLoop=1;jettySize=auto;html=1;fontSize=12;startArrow=none;startFill=0;endArrow=classic;endFill=1;strokeWidth=1;" parent="hiWhzOmVJdowxT46B0jT-1" source="qft-XIQNbGBDD-aqodCa-3" target="qft-XIQNbGBDD-aqodCa-5" edge="1">
                    <mxGeometry relative="1" as="geometry"/>
                </mxCell>
                <mxCell id="qft-XIQNbGBDD-aqodCa-25" value="Short" style="edgeLabel;html=1;align=center;verticalAlign=middle;resizable=0;points=[];fontSize=12;" parent="qft-XIQNbGBDD-aqodCa-6" vertex="1" connectable="0">
                    <mxGeometry x="-0.1" y="3" relative="1" as="geometry">
                        <mxPoint x="-19" as="offset"/>
                    </mxGeometry>
                </mxCell>
                <mxCell id="qft-XIQNbGBDD-aqodCa-8" value="Long" style="edgeStyle=orthogonalEdgeStyle;curved=1;rounded=0;jumpStyle=arc;orthogonalLoop=1;jettySize=auto;html=1;fontSize=12;startArrow=none;startFill=0;endArrow=classic;endFill=1;strokeWidth=1;" parent="hiWhzOmVJdowxT46B0jT-1" source="qft-XIQNbGBDD-aqodCa-3" target="qft-XIQNbGBDD-aqodCa-7" edge="1">
                    <mxGeometry x="0.2632" y="-10" relative="1" as="geometry">
                        <mxPoint as="offset"/>
                    </mxGeometry>
                </mxCell>
                <mxCell id="qft-XIQNbGBDD-aqodCa-39" value="Short" style="edgeStyle=orthogonalEdgeStyle;curved=1;rounded=0;jumpStyle=arc;orthogonalLoop=1;jettySize=auto;html=1;entryX=0.5;entryY=0;entryDx=0;entryDy=0;fontSize=12;startArrow=none;startFill=0;endArrow=classic;endFill=1;strokeWidth=1;" parent="hiWhzOmVJdowxT46B0jT-1" source="qft-XIQNbGBDD-aqodCa-3" target="qft-XIQNbGBDD-aqodCa-38" edge="1">
                    <mxGeometry relative="1" as="geometry"/>
                </mxCell>
                <mxCell id="qft-XIQNbGBDD-aqodCa-40" value="Long" style="edgeStyle=orthogonalEdgeStyle;curved=1;rounded=0;jumpStyle=arc;orthogonalLoop=1;jettySize=auto;html=1;entryX=0.5;entryY=0;entryDx=0;entryDy=0;fontSize=12;startArrow=none;startFill=0;endArrow=classic;endFill=1;strokeWidth=1;" parent="hiWhzOmVJdowxT46B0jT-1" source="qft-XIQNbGBDD-aqodCa-3" target="qft-XIQNbGBDD-aqodCa-37" edge="1">
                    <mxGeometry x="0.3571" y="-30" relative="1" as="geometry">
                        <mxPoint as="offset"/>
                    </mxGeometry>
                </mxCell>
                <mxCell id="qft-XIQNbGBDD-aqodCa-3" value="Transmission is Long/Short" style="ellipse;whiteSpace=wrap;html=1;fontSize=12;strokeWidth=2;verticalAlign=middle;strokeColor=#6D1F00;fillColor=#a0522d;fontColor=#ffffff;" parent="hiWhzOmVJdowxT46B0jT-1" vertex="1">
                    <mxGeometry x="300" y="1690" width="80" height="80" as="geometry"/>
                </mxCell>
                <mxCell id="qft-XIQNbGBDD-aqodCa-11" style="edgeStyle=orthogonalEdgeStyle;curved=1;rounded=0;jumpStyle=arc;orthogonalLoop=1;jettySize=auto;html=1;entryX=0.5;entryY=0;entryDx=0;entryDy=0;fontSize=12;startArrow=none;startFill=0;endArrow=classic;endFill=1;strokeWidth=1;exitX=0.5;exitY=1;exitDx=0;exitDy=0;" parent="hiWhzOmVJdowxT46B0jT-1" source="qft-XIQNbGBDD-aqodCa-5" target="qft-XIQNbGBDD-aqodCa-9" edge="1">
                    <mxGeometry relative="1" as="geometry">
                        <Array as="points">
                            <mxPoint x="261" y="1980"/>
                            <mxPoint x="390" y="1980"/>
                        </Array>
                    </mxGeometry>
                </mxCell>
                <mxCell id="qft-XIQNbGBDD-aqodCa-5" value="Call for Increased Generation" style="ellipse;whiteSpace=wrap;html=1;fontSize=12;strokeWidth=2;verticalAlign=middle;strokeColor=#6D1F00;fillColor=#a0522d;fontColor=#ffffff;" parent="hiWhzOmVJdowxT46B0jT-1" vertex="1">
                    <mxGeometry x="221" y="1860" width="80" height="80" as="geometry"/>
                </mxCell>
                <mxCell id="qft-XIQNbGBDD-aqodCa-10" value="" style="edgeStyle=orthogonalEdgeStyle;curved=1;rounded=0;jumpStyle=arc;orthogonalLoop=1;jettySize=auto;html=1;fontSize=12;startArrow=none;startFill=0;endArrow=classic;endFill=1;strokeWidth=1;" parent="hiWhzOmVJdowxT46B0jT-1" source="qft-XIQNbGBDD-aqodCa-7" target="qft-XIQNbGBDD-aqodCa-9" edge="1">
                    <mxGeometry relative="1" as="geometry"/>
                </mxCell>
                <mxCell id="qft-XIQNbGBDD-aqodCa-7" value="Call for Reduced Generation" style="ellipse;whiteSpace=wrap;html=1;fontSize=12;strokeWidth=2;verticalAlign=middle;strokeColor=#6D1F00;fillColor=#a0522d;fontColor=#ffffff;" parent="hiWhzOmVJdowxT46B0jT-1" vertex="1">
                    <mxGeometry x="400" y="1860" width="80" height="80" as="geometry"/>
                </mxCell>
                <mxCell id="qft-XIQNbGBDD-aqodCa-14" value="" style="edgeStyle=orthogonalEdgeStyle;curved=1;rounded=0;jumpStyle=arc;orthogonalLoop=1;jettySize=auto;html=1;fontSize=12;startArrow=none;startFill=0;endArrow=classic;endFill=1;strokeWidth=1;" parent="hiWhzOmVJdowxT46B0jT-1" source="qft-XIQNbGBDD-aqodCa-9" target="qft-XIQNbGBDD-aqodCa-13" edge="1">
                    <mxGeometry relative="1" as="geometry"/>
                </mxCell>
                <mxCell id="qft-XIQNbGBDD-aqodCa-20" value="" style="edgeStyle=orthogonalEdgeStyle;curved=1;rounded=0;jumpStyle=arc;orthogonalLoop=1;jettySize=auto;html=1;fontSize=12;startArrow=none;startFill=0;endArrow=classic;endFill=1;strokeWidth=1;entryX=0.5;entryY=1;entryDx=0;entryDy=0;" parent="hiWhzOmVJdowxT46B0jT-1" source="qft-XIQNbGBDD-aqodCa-9" target="qft-XIQNbGBDD-aqodCa-27" edge="1">
                    <mxGeometry relative="1" as="geometry"/>
                </mxCell>
                <mxCell id="qft-XIQNbGBDD-aqodCa-21" value="None" style="edgeLabel;html=1;align=center;verticalAlign=middle;resizable=0;points=[];fontSize=12;" parent="qft-XIQNbGBDD-aqodCa-20" vertex="1" connectable="0">
                    <mxGeometry x="0.42" y="-5" relative="1" as="geometry">
                        <mxPoint x="-25" y="-2" as="offset"/>
                    </mxGeometry>
                </mxCell>
                <mxCell id="qft-XIQNbGBDD-aqodCa-9" value="Receive Bids &amp;amp; Offers to deviate from FPN" style="ellipse;whiteSpace=wrap;html=1;fontSize=12;strokeWidth=2;verticalAlign=middle;strokeColor=#6D1F00;fillColor=#a0522d;fontColor=#ffffff;" parent="hiWhzOmVJdowxT46B0jT-1" vertex="1">
                    <mxGeometry x="350" y="2000" width="80" height="80" as="geometry"/>
                </mxCell>
                <mxCell id="qft-XIQNbGBDD-aqodCa-16" value="" style="edgeStyle=orthogonalEdgeStyle;curved=1;rounded=0;jumpStyle=arc;orthogonalLoop=1;jettySize=auto;html=1;fontSize=12;startArrow=none;startFill=0;endArrow=classic;endFill=1;strokeWidth=1;exitX=0;exitY=0.5;exitDx=0;exitDy=0;" parent="hiWhzOmVJdowxT46B0jT-1" source="qft-XIQNbGBDD-aqodCa-13" target="qft-XIQNbGBDD-aqodCa-15" edge="1">
                    <mxGeometry relative="1" as="geometry"/>
                </mxCell>
                <mxCell id="qft-XIQNbGBDD-aqodCa-13" value="Asses Bids and Offer (BOAs)" style="ellipse;whiteSpace=wrap;html=1;fontSize=12;strokeWidth=2;verticalAlign=middle;strokeColor=#6D1F00;fillColor=#a0522d;fontColor=#ffffff;" parent="hiWhzOmVJdowxT46B0jT-1" vertex="1">
                    <mxGeometry x="190" y="2000" width="80" height="80" as="geometry"/>
                </mxCell>
                <mxCell id="qft-XIQNbGBDD-aqodCa-17" style="edgeStyle=orthogonalEdgeStyle;curved=1;rounded=0;jumpStyle=arc;orthogonalLoop=1;jettySize=auto;html=1;entryX=0;entryY=0.5;entryDx=0;entryDy=0;fontSize=12;startArrow=none;startFill=0;endArrow=classic;endFill=1;strokeWidth=1;exitX=0.5;exitY=0;exitDx=0;exitDy=0;" parent="hiWhzOmVJdowxT46B0jT-1" source="qft-XIQNbGBDD-aqodCa-15" target="qft-XIQNbGBDD-aqodCa-3" edge="1">
                    <mxGeometry relative="1" as="geometry"/>
                </mxCell>
                <mxCell id="qft-XIQNbGBDD-aqodCa-35" value="" style="edgeStyle=orthogonalEdgeStyle;curved=1;rounded=0;jumpStyle=arc;orthogonalLoop=1;jettySize=auto;html=1;fontSize=12;startArrow=none;startFill=0;endArrow=classic;endFill=1;strokeWidth=1;" parent="hiWhzOmVJdowxT46B0jT-1" source="qft-XIQNbGBDD-aqodCa-15" target="qft-XIQNbGBDD-aqodCa-34" edge="1">
                    <mxGeometry relative="1" as="geometry"/>
                </mxCell>
                <mxCell id="qft-XIQNbGBDD-aqodCa-15" value="Approve Bids/Offers for SP" style="ellipse;whiteSpace=wrap;html=1;fontSize=12;strokeWidth=2;verticalAlign=middle;strokeColor=#6D1F00;fillColor=#a0522d;fontColor=#ffffff;" parent="hiWhzOmVJdowxT46B0jT-1" vertex="1">
                    <mxGeometry x="90" y="1860" width="80" height="80" as="geometry"/>
                </mxCell>
                <mxCell id="qft-XIQNbGBDD-aqodCa-22" style="edgeStyle=orthogonalEdgeStyle;curved=1;rounded=0;jumpStyle=arc;orthogonalLoop=1;jettySize=auto;html=1;entryX=1;entryY=1;entryDx=0;entryDy=0;fontSize=12;startArrow=none;startFill=0;endArrow=classic;endFill=1;strokeWidth=1;exitX=0.5;exitY=0;exitDx=0;exitDy=0;" parent="hiWhzOmVJdowxT46B0jT-1" source="qft-XIQNbGBDD-aqodCa-19" target="qft-XIQNbGBDD-aqodCa-23" edge="1">
                    <mxGeometry relative="1" as="geometry">
                        <Array as="points">
                            <mxPoint x="600" y="1648"/>
                        </Array>
                    </mxGeometry>
                </mxCell>
                <mxCell id="qft-XIQNbGBDD-aqodCa-19" value="Contigency Balancing Reserve (BSAA)" style="ellipse;whiteSpace=wrap;html=1;fontSize=12;strokeWidth=2;verticalAlign=middle;strokeColor=#6D1F00;fillColor=#a0522d;fontColor=#ffffff;" parent="hiWhzOmVJdowxT46B0jT-1" vertex="1">
                    <mxGeometry x="560" y="1760" width="80" height="80" as="geometry"/>
                </mxCell>
                <mxCell id="qft-XIQNbGBDD-aqodCa-24" style="edgeStyle=orthogonalEdgeStyle;curved=1;rounded=0;jumpStyle=arc;orthogonalLoop=1;jettySize=auto;html=1;fontSize=12;startArrow=none;startFill=0;endArrow=classic;endFill=1;strokeWidth=1;" parent="hiWhzOmVJdowxT46B0jT-1" source="qft-XIQNbGBDD-aqodCa-23" target="qft-XIQNbGBDD-aqodCa-3" edge="1">
                    <mxGeometry relative="1" as="geometry"/>
                </mxCell>
                <mxCell id="qft-XIQNbGBDD-aqodCa-32" value="" style="edgeStyle=orthogonalEdgeStyle;curved=1;rounded=0;jumpStyle=arc;orthogonalLoop=1;jettySize=auto;html=1;fontSize=12;startArrow=none;startFill=0;endArrow=classic;endFill=1;strokeWidth=1;" parent="hiWhzOmVJdowxT46B0jT-1" source="qft-XIQNbGBDD-aqodCa-23" target="qft-XIQNbGBDD-aqodCa-31" edge="1">
                    <mxGeometry relative="1" as="geometry"/>
                </mxCell>
                <mxCell id="qft-XIQNbGBDD-aqodCa-33" value="None" style="edgeLabel;html=1;align=center;verticalAlign=middle;resizable=0;points=[];fontSize=12;" parent="qft-XIQNbGBDD-aqodCa-32" vertex="1" connectable="0">
                    <mxGeometry x="-0.0571" relative="1" as="geometry">
                        <mxPoint as="offset"/>
                    </mxGeometry>
                </mxCell>
                <mxCell id="qft-XIQNbGBDD-aqodCa-23" value="Determine Imbalance" style="ellipse;whiteSpace=wrap;html=1;fontSize=12;strokeWidth=2;verticalAlign=middle;strokeColor=#6D1F00;fillColor=#a0522d;fontColor=#ffffff;" parent="hiWhzOmVJdowxT46B0jT-1" vertex="1">
                    <mxGeometry x="300" y="1580" width="80" height="80" as="geometry"/>
                </mxCell>
                <mxCell id="qft-XIQNbGBDD-aqodCa-30" style="edgeStyle=orthogonalEdgeStyle;curved=1;rounded=0;jumpStyle=arc;orthogonalLoop=1;jettySize=auto;html=1;entryX=0.963;entryY=0.675;entryDx=0;entryDy=0;entryPerimeter=0;fontSize=12;startArrow=none;startFill=0;endArrow=classic;endFill=1;strokeWidth=1;" parent="hiWhzOmVJdowxT46B0jT-1" source="qft-XIQNbGBDD-aqodCa-26" target="qft-XIQNbGBDD-aqodCa-23" edge="1">
                    <mxGeometry relative="1" as="geometry">
                        <Array as="points">
                            <mxPoint x="690" y="1634"/>
                        </Array>
                    </mxGeometry>
                </mxCell>
                <mxCell id="qft-XIQNbGBDD-aqodCa-26" value="Demand Control" style="ellipse;whiteSpace=wrap;html=1;fontSize=12;strokeWidth=2;verticalAlign=middle;strokeColor=#6D1F00;fillColor=#a0522d;fontColor=#ffffff;" parent="hiWhzOmVJdowxT46B0jT-1" vertex="1">
                    <mxGeometry x="660" y="1760" width="80" height="80" as="geometry"/>
                </mxCell>
                <mxCell id="qft-XIQNbGBDD-aqodCa-28" style="edgeStyle=orthogonalEdgeStyle;curved=1;rounded=0;jumpStyle=arc;orthogonalLoop=1;jettySize=auto;html=1;fontSize=12;startArrow=none;startFill=0;endArrow=classic;endFill=1;strokeWidth=1;" parent="hiWhzOmVJdowxT46B0jT-1" source="qft-XIQNbGBDD-aqodCa-27" target="qft-XIQNbGBDD-aqodCa-26" edge="1">
                    <mxGeometry relative="1" as="geometry"/>
                </mxCell>
                <mxCell id="qft-XIQNbGBDD-aqodCa-29" style="edgeStyle=orthogonalEdgeStyle;curved=1;rounded=0;jumpStyle=arc;orthogonalLoop=1;jettySize=auto;html=1;entryX=0.5;entryY=1;entryDx=0;entryDy=0;fontSize=12;startArrow=none;startFill=0;endArrow=classic;endFill=1;strokeWidth=1;" parent="hiWhzOmVJdowxT46B0jT-1" source="qft-XIQNbGBDD-aqodCa-27" target="qft-XIQNbGBDD-aqodCa-19" edge="1">
                    <mxGeometry relative="1" as="geometry"/>
                </mxCell>
                <mxCell id="qft-XIQNbGBDD-aqodCa-27" value="Emergency Balancing" style="ellipse;whiteSpace=wrap;html=1;fontSize=12;strokeWidth=2;verticalAlign=middle;strokeColor=#6D1F00;fillColor=#a0522d;fontColor=#ffffff;" parent="hiWhzOmVJdowxT46B0jT-1" vertex="1">
                    <mxGeometry x="610" y="1910" width="80" height="80" as="geometry"/>
                </mxCell>
                <mxCell id="qft-XIQNbGBDD-aqodCa-31" value="Send BOA's, BSAA, and Demand Control to BSC" style="ellipse;whiteSpace=wrap;html=1;fontSize=12;strokeWidth=2;verticalAlign=middle;strokeColor=#6D1F00;fillColor=#a0522d;fontColor=#ffffff;" parent="hiWhzOmVJdowxT46B0jT-1" vertex="1">
                    <mxGeometry x="490" y="1520" width="80" height="80" as="geometry"/>
                </mxCell>
                <mxCell id="qft-XIQNbGBDD-aqodCa-36" style="edgeStyle=orthogonalEdgeStyle;curved=1;rounded=0;jumpStyle=arc;orthogonalLoop=1;jettySize=auto;html=1;entryX=0;entryY=1;entryDx=0;entryDy=0;fontSize=12;startArrow=none;startFill=0;endArrow=classic;endFill=1;strokeWidth=1;exitX=0.5;exitY=0;exitDx=0;exitDy=0;" parent="hiWhzOmVJdowxT46B0jT-1" source="qft-XIQNbGBDD-aqodCa-34" target="qft-XIQNbGBDD-aqodCa-23" edge="1">
                    <mxGeometry relative="1" as="geometry">
                        <Array as="points">
                            <mxPoint x="70" y="1648"/>
                        </Array>
                    </mxGeometry>
                </mxCell>
                <mxCell id="qft-XIQNbGBDD-aqodCa-34" value="Contact BMU and instruct FPN Deviation" style="ellipse;whiteSpace=wrap;html=1;fontSize=12;strokeWidth=2;verticalAlign=middle;strokeColor=#6D1F00;fillColor=#a0522d;fontColor=#ffffff;" parent="hiWhzOmVJdowxT46B0jT-1" vertex="1">
                    <mxGeometry x="30" y="1700" width="80" height="80" as="geometry"/>
                </mxCell>
                <mxCell id="qft-XIQNbGBDD-aqodCa-41" style="edgeStyle=orthogonalEdgeStyle;curved=1;rounded=0;jumpStyle=arc;orthogonalLoop=1;jettySize=auto;html=1;fontSize=12;startArrow=none;startFill=0;endArrow=classic;endFill=1;strokeWidth=1;" parent="hiWhzOmVJdowxT46B0jT-1" source="qft-XIQNbGBDD-aqodCa-37" target="qft-XIQNbGBDD-aqodCa-9" edge="1">
                    <mxGeometry relative="1" as="geometry">
                        <Array as="points">
                            <mxPoint x="530" y="1990"/>
                            <mxPoint x="390" y="1990"/>
                        </Array>
                    </mxGeometry>
                </mxCell>
                <mxCell id="qft-XIQNbGBDD-aqodCa-37" value="Call for Increased Demand" style="ellipse;whiteSpace=wrap;html=1;fontSize=12;strokeWidth=2;verticalAlign=middle;strokeColor=#6D1F00;fillColor=#a0522d;fontColor=#ffffff;" parent="hiWhzOmVJdowxT46B0jT-1" vertex="1">
                    <mxGeometry x="490" y="1860" width="80" height="80" as="geometry"/>
                </mxCell>
                <mxCell id="qft-XIQNbGBDD-aqodCa-42" style="edgeStyle=orthogonalEdgeStyle;curved=1;rounded=0;jumpStyle=arc;orthogonalLoop=1;jettySize=auto;html=1;fontSize=12;startArrow=none;startFill=0;endArrow=classic;endFill=1;strokeWidth=1;" parent="hiWhzOmVJdowxT46B0jT-1" source="qft-XIQNbGBDD-aqodCa-38" edge="1">
                    <mxGeometry relative="1" as="geometry">
                        <mxPoint x="390" y="2000" as="targetPoint"/>
                    </mxGeometry>
                </mxCell>
                <mxCell id="qft-XIQNbGBDD-aqodCa-38" value="Call for Reduced Demand" style="ellipse;whiteSpace=wrap;html=1;fontSize=12;strokeWidth=2;verticalAlign=middle;strokeColor=#6D1F00;fillColor=#a0522d;fontColor=#ffffff;" parent="hiWhzOmVJdowxT46B0jT-1" vertex="1">
                    <mxGeometry x="310" y="1860" width="80" height="80" as="geometry"/>
                </mxCell>
            </root>
        </mxGraphModel>
    </diagram>
    <diagram id="7Te-DzKswcn-XossJuFO" name="Page-4">
        <mxGraphModel dx="599" dy="1640" grid="1" gridSize="10" guides="1" tooltips="1" connect="1" arrows="1" fold="1" page="1" pageScale="1" pageWidth="850" pageHeight="1100" math="0" shadow="0">
            <root>
                <mxCell id="iLmhON-b7zHYLyRR5lnO-0"/>
                <mxCell id="iLmhON-b7zHYLyRR5lnO-1" parent="iLmhON-b7zHYLyRR5lnO-0"/>
                <mxCell id="iLmhON-b7zHYLyRR5lnO-21" value="" style="edgeStyle=orthogonalEdgeStyle;rounded=0;jumpStyle=arc;orthogonalLoop=1;jettySize=auto;html=1;fontSize=12;startArrow=none;startFill=0;endArrow=classic;endFill=1;" parent="iLmhON-b7zHYLyRR5lnO-1" source="iLmhON-b7zHYLyRR5lnO-19" target="iLmhON-b7zHYLyRR5lnO-20" edge="1">
                    <mxGeometry relative="1" as="geometry"/>
                </mxCell>
                <mxCell id="iLmhON-b7zHYLyRR5lnO-85" value="" style="edgeStyle=orthogonalEdgeStyle;rounded=0;jumpStyle=arc;orthogonalLoop=1;jettySize=auto;html=1;fontSize=12;startArrow=none;startFill=0;endArrow=classic;endFill=1;strokeWidth=1;" parent="iLmhON-b7zHYLyRR5lnO-1" source="iLmhON-b7zHYLyRR5lnO-19" target="iLmhON-b7zHYLyRR5lnO-84" edge="1">
                    <mxGeometry relative="1" as="geometry"/>
                </mxCell>
                <mxCell id="iLmhON-b7zHYLyRR5lnO-19" value="Begin Contract Negotiation some time before Settlement Period" style="whiteSpace=wrap;html=1;rounded=0;fontSize=12;strokeWidth=2;fillColor=#2a2a2a;verticalAlign=middle;" parent="iLmhON-b7zHYLyRR5lnO-1" vertex="1">
                    <mxGeometry x="20" y="50" width="120" height="60" as="geometry"/>
                </mxCell>
                <mxCell id="iLmhON-b7zHYLyRR5lnO-23" value="" style="edgeStyle=orthogonalEdgeStyle;rounded=0;jumpStyle=arc;orthogonalLoop=1;jettySize=auto;html=1;fontSize=12;startArrow=none;startFill=0;endArrow=classic;endFill=1;" parent="iLmhON-b7zHYLyRR5lnO-1" source="iLmhON-b7zHYLyRR5lnO-20" target="iLmhON-b7zHYLyRR5lnO-22" edge="1">
                    <mxGeometry relative="1" as="geometry"/>
                </mxCell>
                <mxCell id="iLmhON-b7zHYLyRR5lnO-20" value="Participants determing the forecasted demand and load for the SP" style="whiteSpace=wrap;html=1;rounded=0;fontSize=12;strokeWidth=2;fillColor=#2a2a2a;verticalAlign=middle;" parent="iLmhON-b7zHYLyRR5lnO-1" vertex="1">
                    <mxGeometry x="170" y="50" width="120" height="60" as="geometry"/>
                </mxCell>
                <mxCell id="iLmhON-b7zHYLyRR5lnO-25" value="" style="edgeStyle=orthogonalEdgeStyle;rounded=0;jumpStyle=arc;orthogonalLoop=1;jettySize=auto;html=1;fontSize=12;startArrow=none;startFill=0;endArrow=classic;endFill=1;" parent="iLmhON-b7zHYLyRR5lnO-1" source="iLmhON-b7zHYLyRR5lnO-22" target="iLmhON-b7zHYLyRR5lnO-24" edge="1">
                    <mxGeometry relative="1" as="geometry"/>
                </mxCell>
                <mxCell id="iLmhON-b7zHYLyRR5lnO-48" value="PN's" style="edgeLabel;html=1;align=center;verticalAlign=middle;resizable=0;points=[];fontSize=12;" parent="iLmhON-b7zHYLyRR5lnO-25" vertex="1" connectable="0">
                    <mxGeometry x="-0.08" y="-1" relative="1" as="geometry">
                        <mxPoint as="offset"/>
                    </mxGeometry>
                </mxCell>
                <mxCell id="iLmhON-b7zHYLyRR5lnO-22" value="Particpants create contracts that match demand and generation for SP" style="whiteSpace=wrap;html=1;rounded=0;fontSize=12;strokeWidth=2;fillColor=#2a2a2a;verticalAlign=middle;" parent="iLmhON-b7zHYLyRR5lnO-1" vertex="1">
                    <mxGeometry x="310" y="50" width="120" height="60" as="geometry"/>
                </mxCell>
                <mxCell id="iLmhON-b7zHYLyRR5lnO-113" style="edgeStyle=orthogonalEdgeStyle;rounded=0;jumpStyle=arc;orthogonalLoop=1;jettySize=auto;html=1;fontSize=12;startArrow=none;startFill=0;endArrow=classic;endFill=1;strokeWidth=1;" parent="iLmhON-b7zHYLyRR5lnO-1" source="iLmhON-b7zHYLyRR5lnO-24" target="iLmhON-b7zHYLyRR5lnO-71" edge="1">
                    <mxGeometry relative="1" as="geometry"/>
                </mxCell>
                <mxCell id="iLmhON-b7zHYLyRR5lnO-114" value="FPN's" style="edgeLabel;html=1;align=center;verticalAlign=middle;resizable=0;points=[];fontSize=12;" parent="iLmhON-b7zHYLyRR5lnO-113" vertex="1" connectable="0">
                    <mxGeometry x="-0.0588" y="-1" relative="1" as="geometry">
                        <mxPoint as="offset"/>
                    </mxGeometry>
                </mxCell>
                <mxCell id="iLmhON-b7zHYLyRR5lnO-24" value="Gate Closure for Settlement Period" style="whiteSpace=wrap;html=1;rounded=0;fontSize=12;strokeWidth=2;fillColor=#2a2a2a;verticalAlign=middle;" parent="iLmhON-b7zHYLyRR5lnO-1" vertex="1">
                    <mxGeometry x="510" y="50" width="120" height="60" as="geometry"/>
                </mxCell>
                <mxCell id="iLmhON-b7zHYLyRR5lnO-37" style="edgeStyle=none;rounded=0;jumpStyle=arc;orthogonalLoop=1;jettySize=auto;html=1;fontSize=12;startArrow=none;startFill=0;endArrow=classic;endFill=1;strokeWidth=1;" parent="iLmhON-b7zHYLyRR5lnO-1" source="iLmhON-b7zHYLyRR5lnO-28" target="iLmhON-b7zHYLyRR5lnO-34" edge="1">
                    <mxGeometry relative="1" as="geometry"/>
                </mxCell>
                <mxCell id="iLmhON-b7zHYLyRR5lnO-41" style="edgeStyle=orthogonalEdgeStyle;rounded=0;jumpStyle=arc;orthogonalLoop=1;jettySize=auto;html=1;entryX=0.5;entryY=0;entryDx=0;entryDy=0;fontSize=12;startArrow=none;startFill=0;endArrow=classic;endFill=1;strokeWidth=1;" parent="iLmhON-b7zHYLyRR5lnO-1" source="iLmhON-b7zHYLyRR5lnO-28" target="iLmhON-b7zHYLyRR5lnO-32" edge="1">
                    <mxGeometry relative="1" as="geometry"/>
                </mxCell>
                <mxCell id="iLmhON-b7zHYLyRR5lnO-45" style="edgeStyle=orthogonalEdgeStyle;rounded=0;jumpStyle=arc;orthogonalLoop=1;jettySize=auto;html=1;entryX=0.75;entryY=0;entryDx=0;entryDy=0;fontSize=12;startArrow=none;startFill=0;endArrow=classic;endFill=1;strokeWidth=1;" parent="iLmhON-b7zHYLyRR5lnO-1" source="iLmhON-b7zHYLyRR5lnO-28" target="iLmhON-b7zHYLyRR5lnO-44" edge="1">
                    <mxGeometry relative="1" as="geometry"/>
                </mxCell>
                <mxCell id="iLmhON-b7zHYLyRR5lnO-28" value="System Operator uses Bids/Offers to change Generation/Demand" style="whiteSpace=wrap;html=1;rounded=0;fontSize=12;strokeWidth=2;fillColor=#2a2a2a;verticalAlign=middle;" parent="iLmhON-b7zHYLyRR5lnO-1" vertex="1">
                    <mxGeometry x="275" y="790" width="120" height="60" as="geometry"/>
                </mxCell>
                <mxCell id="iLmhON-b7zHYLyRR5lnO-46" style="edgeStyle=orthogonalEdgeStyle;rounded=0;jumpStyle=arc;orthogonalLoop=1;jettySize=auto;html=1;entryX=0.75;entryY=0;entryDx=0;entryDy=0;fontSize=12;startArrow=none;startFill=0;endArrow=classic;endFill=1;strokeWidth=1;" parent="iLmhON-b7zHYLyRR5lnO-1" source="iLmhON-b7zHYLyRR5lnO-32" target="iLmhON-b7zHYLyRR5lnO-39" edge="1">
                    <mxGeometry relative="1" as="geometry">
                        <Array as="points">
                            <mxPoint x="465" y="960"/>
                            <mxPoint x="365" y="960"/>
                        </Array>
                    </mxGeometry>
                </mxCell>
                <mxCell id="iLmhON-b7zHYLyRR5lnO-32" value="Capture Balancing Services Adjustment Data (BSAD)" style="whiteSpace=wrap;html=1;rounded=0;fontSize=12;strokeWidth=2;fillColor=#2a2a2a;verticalAlign=middle;" parent="iLmhON-b7zHYLyRR5lnO-1" vertex="1">
                    <mxGeometry x="405" y="880" width="120" height="60" as="geometry"/>
                </mxCell>
                <mxCell id="iLmhON-b7zHYLyRR5lnO-40" value="" style="edgeStyle=none;rounded=0;jumpStyle=arc;orthogonalLoop=1;jettySize=auto;html=1;fontSize=12;startArrow=none;startFill=0;endArrow=classic;endFill=1;strokeWidth=1;" parent="iLmhON-b7zHYLyRR5lnO-1" source="iLmhON-b7zHYLyRR5lnO-34" target="iLmhON-b7zHYLyRR5lnO-39" edge="1">
                    <mxGeometry relative="1" as="geometry"/>
                </mxCell>
                <mxCell id="iLmhON-b7zHYLyRR5lnO-34" value="Create Balancing Actions as Bid-Offer Acceptance (BOA)" style="whiteSpace=wrap;html=1;rounded=0;fontSize=12;strokeWidth=2;fillColor=#2a2a2a;verticalAlign=middle;" parent="iLmhON-b7zHYLyRR5lnO-1" vertex="1">
                    <mxGeometry x="275" y="880" width="120" height="60" as="geometry"/>
                </mxCell>
                <mxCell id="iLmhON-b7zHYLyRR5lnO-39" value="Submit Balancing actions to the BSC" style="whiteSpace=wrap;html=1;rounded=0;fontSize=12;strokeWidth=2;fillColor=#2a2a2a;verticalAlign=middle;" parent="iLmhON-b7zHYLyRR5lnO-1" vertex="1">
                    <mxGeometry x="275" y="1040" width="120" height="60" as="geometry"/>
                </mxCell>
                <mxCell id="iLmhON-b7zHYLyRR5lnO-47" style="edgeStyle=orthogonalEdgeStyle;rounded=0;jumpStyle=arc;orthogonalLoop=1;jettySize=auto;html=1;entryX=0.917;entryY=0;entryDx=0;entryDy=0;entryPerimeter=0;fontSize=12;startArrow=none;startFill=0;endArrow=classic;endFill=1;strokeWidth=1;" parent="iLmhON-b7zHYLyRR5lnO-1" source="iLmhON-b7zHYLyRR5lnO-44" target="iLmhON-b7zHYLyRR5lnO-39" edge="1">
                    <mxGeometry relative="1" as="geometry"/>
                </mxCell>
                <mxCell id="iLmhON-b7zHYLyRR5lnO-44" value="Leverage Additional , Ancillary and Commercial Services (ABSVD)" style="whiteSpace=wrap;html=1;rounded=0;fontSize=12;strokeWidth=2;fillColor=#2a2a2a;verticalAlign=middle;" parent="iLmhON-b7zHYLyRR5lnO-1" vertex="1">
                    <mxGeometry x="455" y="970" width="120" height="60" as="geometry"/>
                </mxCell>
                <mxCell id="iLmhON-b7zHYLyRR5lnO-49" value="" style="group" parent="iLmhON-b7zHYLyRR5lnO-1" vertex="1" connectable="0">
                    <mxGeometry x="460" y="1130" width="580" height="390" as="geometry"/>
                </mxCell>
                <mxCell id="iLmhON-b7zHYLyRR5lnO-17" value="" style="whiteSpace=wrap;html=1;rounded=0;fontSize=12;strokeWidth=2;fillColor=#2a2a2a;verticalAlign=middle;" parent="iLmhON-b7zHYLyRR5lnO-49" vertex="1">
                    <mxGeometry width="580" height="390" as="geometry"/>
                </mxCell>
                <mxCell id="iLmhON-b7zHYLyRR5lnO-2" value="Suppliers with flexible demands" style="whiteSpace=wrap;html=1;rounded=0;fontSize=12;strokeWidth=2;fillColor=#2a2a2a;verticalAlign=middle;" parent="iLmhON-b7zHYLyRR5lnO-49" vertex="1">
                    <mxGeometry x="40" y="240" width="120" height="60" as="geometry"/>
                </mxCell>
                <mxCell id="iLmhON-b7zHYLyRR5lnO-81" style="edgeStyle=orthogonalEdgeStyle;rounded=0;jumpStyle=arc;orthogonalLoop=1;jettySize=auto;html=1;entryX=0;entryY=0.5;entryDx=0;entryDy=0;fontSize=12;startArrow=none;startFill=0;endArrow=classic;endFill=1;strokeWidth=1;" parent="iLmhON-b7zHYLyRR5lnO-49" source="iLmhON-b7zHYLyRR5lnO-5" target="iLmhON-b7zHYLyRR5lnO-75" edge="1">
                    <mxGeometry relative="1" as="geometry"/>
                </mxCell>
                <mxCell id="iLmhON-b7zHYLyRR5lnO-5" value="Bid to Reduce Generation" style="whiteSpace=wrap;html=1;rounded=0;strokeWidth=2;" parent="iLmhON-b7zHYLyRR5lnO-49" vertex="1">
                    <mxGeometry x="230" y="140" width="120" height="60" as="geometry"/>
                </mxCell>
                <mxCell id="iLmhON-b7zHYLyRR5lnO-78" style="edgeStyle=orthogonalEdgeStyle;rounded=0;jumpStyle=arc;orthogonalLoop=1;jettySize=auto;html=1;fontSize=12;startArrow=none;startFill=0;endArrow=classic;endFill=1;strokeWidth=1;" parent="iLmhON-b7zHYLyRR5lnO-49" source="iLmhON-b7zHYLyRR5lnO-7" target="iLmhON-b7zHYLyRR5lnO-75" edge="1">
                    <mxGeometry relative="1" as="geometry"/>
                </mxCell>
                <mxCell id="iLmhON-b7zHYLyRR5lnO-7" value="Offer to Reduce Demand" style="whiteSpace=wrap;html=1;rounded=0;fontSize=12;strokeWidth=2;fillColor=#2a2a2a;verticalAlign=middle;" parent="iLmhON-b7zHYLyRR5lnO-49" vertex="1">
                    <mxGeometry x="230" y="220" width="120" height="60" as="geometry"/>
                </mxCell>
                <mxCell id="iLmhON-b7zHYLyRR5lnO-9" style="edgeStyle=orthogonalEdgeStyle;rounded=0;jumpStyle=arc;orthogonalLoop=1;jettySize=auto;html=1;entryX=0;entryY=0.5;entryDx=0;entryDy=0;fontSize=12;startArrow=none;startFill=0;endArrow=classic;endFill=1;" parent="iLmhON-b7zHYLyRR5lnO-49" source="iLmhON-b7zHYLyRR5lnO-2" target="iLmhON-b7zHYLyRR5lnO-7" edge="1">
                    <mxGeometry relative="1" as="geometry"/>
                </mxCell>
                <mxCell id="iLmhON-b7zHYLyRR5lnO-80" style="edgeStyle=orthogonalEdgeStyle;rounded=0;jumpStyle=arc;orthogonalLoop=1;jettySize=auto;html=1;fontSize=12;startArrow=none;startFill=0;endArrow=classic;endFill=1;strokeWidth=1;entryX=0;entryY=0.5;entryDx=0;entryDy=0;" parent="iLmhON-b7zHYLyRR5lnO-49" source="iLmhON-b7zHYLyRR5lnO-10" target="iLmhON-b7zHYLyRR5lnO-75" edge="1">
                    <mxGeometry relative="1" as="geometry"/>
                </mxCell>
                <mxCell id="iLmhON-b7zHYLyRR5lnO-10" value="Bid to Increase Demand" style="whiteSpace=wrap;html=1;rounded=0;fontSize=12;strokeWidth=2;fillColor=#2a2a2a;verticalAlign=middle;" parent="iLmhON-b7zHYLyRR5lnO-49" vertex="1">
                    <mxGeometry x="230" y="300" width="120" height="60" as="geometry"/>
                </mxCell>
                <mxCell id="iLmhON-b7zHYLyRR5lnO-11" value="" style="edgeStyle=orthogonalEdgeStyle;rounded=0;jumpStyle=arc;orthogonalLoop=1;jettySize=auto;html=1;fontSize=12;startArrow=none;startFill=0;endArrow=classic;endFill=1;" parent="iLmhON-b7zHYLyRR5lnO-49" target="iLmhON-b7zHYLyRR5lnO-10" edge="1">
                    <mxGeometry relative="1" as="geometry">
                        <mxPoint x="160" y="270" as="sourcePoint"/>
                        <Array as="points">
                            <mxPoint x="190" y="270"/>
                            <mxPoint x="190" y="330"/>
                        </Array>
                    </mxGeometry>
                </mxCell>
                <mxCell id="iLmhON-b7zHYLyRR5lnO-13" style="edgeStyle=orthogonalEdgeStyle;rounded=0;jumpStyle=arc;orthogonalLoop=1;jettySize=auto;html=1;entryX=0;entryY=0.5;entryDx=0;entryDy=0;fontSize=12;startArrow=none;startFill=0;endArrow=classic;endFill=1;" parent="iLmhON-b7zHYLyRR5lnO-49" source="iLmhON-b7zHYLyRR5lnO-12" target="iLmhON-b7zHYLyRR5lnO-5" edge="1">
                    <mxGeometry relative="1" as="geometry"/>
                </mxCell>
                <mxCell id="iLmhON-b7zHYLyRR5lnO-12" value="Suppliers with flexible generation" style="whiteSpace=wrap;html=1;rounded=0;fontSize=12;strokeWidth=2;fillColor=#2a2a2a;verticalAlign=middle;" parent="iLmhON-b7zHYLyRR5lnO-49" vertex="1">
                    <mxGeometry x="40" y="90" width="120" height="60" as="geometry"/>
                </mxCell>
                <mxCell id="iLmhON-b7zHYLyRR5lnO-76" style="edgeStyle=orthogonalEdgeStyle;rounded=0;jumpStyle=arc;orthogonalLoop=1;jettySize=auto;html=1;entryX=0;entryY=0.5;entryDx=0;entryDy=0;fontSize=12;startArrow=none;startFill=0;endArrow=classic;endFill=1;strokeWidth=1;" parent="iLmhON-b7zHYLyRR5lnO-49" source="iLmhON-b7zHYLyRR5lnO-15" target="iLmhON-b7zHYLyRR5lnO-75" edge="1">
                    <mxGeometry relative="1" as="geometry"/>
                </mxCell>
                <mxCell id="iLmhON-b7zHYLyRR5lnO-15" value="Offer to Increase Generation" style="whiteSpace=wrap;html=1;rounded=0;strokeWidth=2;" parent="iLmhON-b7zHYLyRR5lnO-49" vertex="1">
                    <mxGeometry x="230" y="60" width="120" height="60" as="geometry"/>
                </mxCell>
                <mxCell id="iLmhON-b7zHYLyRR5lnO-16" style="edgeStyle=orthogonalEdgeStyle;rounded=0;jumpStyle=arc;orthogonalLoop=1;jettySize=auto;html=1;entryX=0;entryY=0.5;entryDx=0;entryDy=0;fontSize=12;startArrow=none;startFill=0;endArrow=classic;endFill=1;" parent="iLmhON-b7zHYLyRR5lnO-49" source="iLmhON-b7zHYLyRR5lnO-12" target="iLmhON-b7zHYLyRR5lnO-15" edge="1">
                    <mxGeometry relative="1" as="geometry"/>
                </mxCell>
                <mxCell id="iLmhON-b7zHYLyRR5lnO-18" value="Real-time matching and supplying demand during settlement period" style="text;html=1;resizable=0;autosize=1;align=center;verticalAlign=middle;points=[];fillColor=none;strokeColor=none;rounded=0;fontSize=12;" parent="iLmhON-b7zHYLyRR5lnO-49" vertex="1">
                    <mxGeometry x="30" y="10" width="380" height="20" as="geometry"/>
                </mxCell>
                <mxCell id="iLmhON-b7zHYLyRR5lnO-75" value="Choose Cheapest Offer to Balance Gen/Demand" style="whiteSpace=wrap;html=1;rounded=0;strokeWidth=2;" parent="iLmhON-b7zHYLyRR5lnO-49" vertex="1">
                    <mxGeometry x="430" y="180" width="120" height="60" as="geometry"/>
                </mxCell>
                <mxCell id="iLmhON-b7zHYLyRR5lnO-57" value="" style="edgeStyle=orthogonalEdgeStyle;rounded=0;jumpStyle=arc;orthogonalLoop=1;jettySize=auto;html=1;fontSize=12;startArrow=none;startFill=0;endArrow=classic;endFill=1;strokeWidth=1;" parent="iLmhON-b7zHYLyRR5lnO-1" source="iLmhON-b7zHYLyRR5lnO-55" target="iLmhON-b7zHYLyRR5lnO-56" edge="1">
                    <mxGeometry relative="1" as="geometry"/>
                </mxCell>
                <mxCell id="iLmhON-b7zHYLyRR5lnO-55" value="Particpants send a Energy Cotract Volume Notifications (ECVNs)" style="whiteSpace=wrap;html=1;rounded=0;fontSize=12;strokeWidth=2;fillColor=#2a2a2a;verticalAlign=middle;" parent="iLmhON-b7zHYLyRR5lnO-1" vertex="1">
                    <mxGeometry x="180" y="150" width="120" height="60" as="geometry"/>
                </mxCell>
                <mxCell id="iLmhON-b7zHYLyRR5lnO-59" style="edgeStyle=orthogonalEdgeStyle;rounded=0;jumpStyle=arc;orthogonalLoop=1;jettySize=auto;html=1;entryX=0;entryY=0.75;entryDx=0;entryDy=0;fontSize=12;startArrow=none;startFill=0;endArrow=diamond;endFill=1;strokeWidth=1;" parent="iLmhON-b7zHYLyRR5lnO-1" source="iLmhON-b7zHYLyRR5lnO-56" target="iLmhON-b7zHYLyRR5lnO-24" edge="1">
                    <mxGeometry relative="1" as="geometry"/>
                </mxCell>
                <mxCell id="iLmhON-b7zHYLyRR5lnO-56" value="BSC" style="whiteSpace=wrap;html=1;rounded=0;strokeWidth=2;" parent="iLmhON-b7zHYLyRR5lnO-1" vertex="1">
                    <mxGeometry x="340" y="150" width="120" height="60" as="geometry"/>
                </mxCell>
                <mxCell id="iLmhON-b7zHYLyRR5lnO-73" value="" style="group" parent="iLmhON-b7zHYLyRR5lnO-1" vertex="1" connectable="0">
                    <mxGeometry x="640" y="200" width="190" height="820" as="geometry"/>
                </mxCell>
                <mxCell id="iLmhON-b7zHYLyRR5lnO-70" value="" style="whiteSpace=wrap;html=1;rounded=0;fontSize=12;strokeWidth=2;fillColor=#2a2a2a;verticalAlign=middle;" parent="iLmhON-b7zHYLyRR5lnO-73" vertex="1">
                    <mxGeometry width="190" height="640" as="geometry"/>
                </mxCell>
                <mxCell id="iLmhON-b7zHYLyRR5lnO-26" value="Evaluate Net Imbalance of Transmission System" style="whiteSpace=wrap;html=1;rounded=0;fontSize=12;strokeWidth=2;fillColor=#2a2a2a;verticalAlign=middle;" parent="iLmhON-b7zHYLyRR5lnO-73" vertex="1">
                    <mxGeometry x="40" y="40" width="120" height="60" as="geometry"/>
                </mxCell>
                <mxCell id="iLmhON-b7zHYLyRR5lnO-51" value="Gen != Demand" style="rhombus;whiteSpace=wrap;html=1;rounded=0;fontSize=12;strokeWidth=2;fillColor=#2a2a2a;verticalAlign=middle;" parent="iLmhON-b7zHYLyRR5lnO-73" vertex="1">
                    <mxGeometry x="60" y="130" width="80" height="80" as="geometry"/>
                </mxCell>
                <mxCell id="iLmhON-b7zHYLyRR5lnO-52" style="edgeStyle=orthogonalEdgeStyle;rounded=0;jumpStyle=arc;orthogonalLoop=1;jettySize=auto;html=1;entryX=0.5;entryY=0;entryDx=0;entryDy=0;fontSize=12;startArrow=none;startFill=0;endArrow=classic;endFill=1;strokeWidth=1;" parent="iLmhON-b7zHYLyRR5lnO-73" source="iLmhON-b7zHYLyRR5lnO-26" target="iLmhON-b7zHYLyRR5lnO-51" edge="1">
                    <mxGeometry relative="1" as="geometry"/>
                </mxCell>
                <mxCell id="iLmhON-b7zHYLyRR5lnO-53" value="Recieve Bids and Offers to change PN from BMU's" style="whiteSpace=wrap;html=1;rounded=0;strokeWidth=2;" parent="iLmhON-b7zHYLyRR5lnO-73" vertex="1">
                    <mxGeometry x="40" y="250" width="120" height="60" as="geometry"/>
                </mxCell>
                <mxCell id="iLmhON-b7zHYLyRR5lnO-54" value="No" style="edgeStyle=orthogonalEdgeStyle;rounded=0;jumpStyle=arc;orthogonalLoop=1;jettySize=auto;html=1;fontSize=12;startArrow=none;startFill=0;endArrow=classic;endFill=1;strokeWidth=1;" parent="iLmhON-b7zHYLyRR5lnO-73" source="iLmhON-b7zHYLyRR5lnO-51" target="iLmhON-b7zHYLyRR5lnO-53" edge="1">
                    <mxGeometry relative="1" as="geometry"/>
                </mxCell>
                <mxCell id="iLmhON-b7zHYLyRR5lnO-64" style="edgeStyle=orthogonalEdgeStyle;rounded=0;jumpStyle=arc;orthogonalLoop=1;jettySize=auto;html=1;entryX=0;entryY=0.25;entryDx=0;entryDy=0;fontSize=12;startArrow=none;startFill=0;endArrow=classic;endFill=1;strokeWidth=1;exitX=0;exitY=0.5;exitDx=0;exitDy=0;" parent="iLmhON-b7zHYLyRR5lnO-73" source="iLmhON-b7zHYLyRR5lnO-60" target="iLmhON-b7zHYLyRR5lnO-53" edge="1">
                    <mxGeometry relative="1" as="geometry"/>
                </mxCell>
                <mxCell id="iLmhON-b7zHYLyRR5lnO-65" value="No" style="edgeLabel;html=1;align=center;verticalAlign=middle;resizable=0;points=[];fontSize=12;" parent="iLmhON-b7zHYLyRR5lnO-64" vertex="1" connectable="0">
                    <mxGeometry x="-0.5314" y="2" relative="1" as="geometry">
                        <mxPoint y="-38" as="offset"/>
                    </mxGeometry>
                </mxCell>
                <mxCell id="iLmhON-b7zHYLyRR5lnO-60" value="Does it Meet Technical Limitations?" style="rhombus;whiteSpace=wrap;html=1;rounded=0;fontSize=12;strokeWidth=2;fillColor=#2a2a2a;verticalAlign=middle;" parent="iLmhON-b7zHYLyRR5lnO-73" vertex="1">
                    <mxGeometry x="45" y="330" width="110" height="100" as="geometry"/>
                </mxCell>
                <mxCell id="iLmhON-b7zHYLyRR5lnO-62" style="edgeStyle=orthogonalEdgeStyle;rounded=0;jumpStyle=arc;orthogonalLoop=1;jettySize=auto;html=1;entryX=0.5;entryY=0;entryDx=0;entryDy=0;fontSize=12;startArrow=none;startFill=0;endArrow=classic;endFill=1;strokeWidth=1;" parent="iLmhON-b7zHYLyRR5lnO-73" source="iLmhON-b7zHYLyRR5lnO-53" target="iLmhON-b7zHYLyRR5lnO-60" edge="1">
                    <mxGeometry relative="1" as="geometry"/>
                </mxCell>
                <mxCell id="iLmhON-b7zHYLyRR5lnO-61" value="Create Bid-Offer-Acceptance (BOAs)&amp;nbsp;" style="whiteSpace=wrap;html=1;rounded=0;strokeWidth=2;" parent="iLmhON-b7zHYLyRR5lnO-73" vertex="1">
                    <mxGeometry x="40" y="470" width="120" height="60" as="geometry"/>
                </mxCell>
                <mxCell id="iLmhON-b7zHYLyRR5lnO-66" value="Yes" style="edgeStyle=orthogonalEdgeStyle;rounded=0;jumpStyle=arc;orthogonalLoop=1;jettySize=auto;html=1;entryX=0.5;entryY=0;entryDx=0;entryDy=0;fontSize=12;startArrow=none;startFill=0;endArrow=classic;endFill=1;strokeWidth=1;" parent="iLmhON-b7zHYLyRR5lnO-73" source="iLmhON-b7zHYLyRR5lnO-60" target="iLmhON-b7zHYLyRR5lnO-61" edge="1">
                    <mxGeometry relative="1" as="geometry"/>
                </mxCell>
                <mxCell id="iLmhON-b7zHYLyRR5lnO-67" value="Submit to BSC" style="whiteSpace=wrap;html=1;rounded=0;strokeWidth=2;" parent="iLmhON-b7zHYLyRR5lnO-73" vertex="1">
                    <mxGeometry x="40" y="560" width="120" height="60" as="geometry"/>
                </mxCell>
                <mxCell id="iLmhON-b7zHYLyRR5lnO-72" value="Yes" style="edgeStyle=orthogonalEdgeStyle;rounded=0;jumpStyle=arc;orthogonalLoop=1;jettySize=auto;html=1;entryX=1;entryY=0.5;entryDx=0;entryDy=0;fontSize=12;startArrow=none;startFill=0;endArrow=classic;endFill=1;strokeWidth=1;" parent="iLmhON-b7zHYLyRR5lnO-73" source="iLmhON-b7zHYLyRR5lnO-51" target="iLmhON-b7zHYLyRR5lnO-67" edge="1">
                    <mxGeometry x="-0.9167" relative="1" as="geometry">
                        <Array as="points">
                            <mxPoint x="180" y="170"/>
                            <mxPoint x="180" y="590"/>
                        </Array>
                        <mxPoint as="offset"/>
                    </mxGeometry>
                </mxCell>
                <mxCell id="iLmhON-b7zHYLyRR5lnO-68" value="" style="edgeStyle=orthogonalEdgeStyle;rounded=0;jumpStyle=arc;orthogonalLoop=1;jettySize=auto;html=1;fontSize=12;startArrow=none;startFill=0;endArrow=classic;endFill=1;strokeWidth=1;" parent="iLmhON-b7zHYLyRR5lnO-73" source="iLmhON-b7zHYLyRR5lnO-61" target="iLmhON-b7zHYLyRR5lnO-67" edge="1">
                    <mxGeometry relative="1" as="geometry"/>
                </mxCell>
                <mxCell id="iLmhON-b7zHYLyRR5lnO-71" value="Billing Mechanisim (BM)" style="text;html=1;resizable=0;autosize=1;align=center;verticalAlign=middle;points=[];fillColor=none;strokeColor=none;rounded=0;fontSize=12;fontStyle=1" parent="iLmhON-b7zHYLyRR5lnO-73" vertex="1">
                    <mxGeometry x="25" width="150" height="20" as="geometry"/>
                </mxCell>
                <mxCell id="iLmhON-b7zHYLyRR5lnO-69" style="edgeStyle=orthogonalEdgeStyle;rounded=0;jumpStyle=arc;orthogonalLoop=1;jettySize=auto;html=1;entryX=1;entryY=0.75;entryDx=0;entryDy=0;fontSize=12;startArrow=none;startFill=0;endArrow=classic;endFill=1;strokeWidth=1;" parent="iLmhON-b7zHYLyRR5lnO-1" source="iLmhON-b7zHYLyRR5lnO-67" target="iLmhON-b7zHYLyRR5lnO-56" edge="1">
                    <mxGeometry relative="1" as="geometry"/>
                </mxCell>
                <mxCell id="iLmhON-b7zHYLyRR5lnO-84" value="Bid Mechanism Unit : A particpant with a PN for the SP." style="whiteSpace=wrap;html=1;rounded=0;fontSize=12;strokeWidth=2;fillColor=#2a2a2a;verticalAlign=middle;" parent="iLmhON-b7zHYLyRR5lnO-1" vertex="1">
                    <mxGeometry x="20" y="-60" width="120" height="60" as="geometry"/>
                </mxCell>
                <mxCell id="iLmhON-b7zHYLyRR5lnO-93" value="Applicable Balancing Servces Volume Data (ABSVD)" style="whiteSpace=wrap;html=1;rounded=0;fontSize=12;strokeWidth=2;fillColor=#2a2a2a;verticalAlign=middle;" parent="iLmhON-b7zHYLyRR5lnO-1" vertex="1">
                    <mxGeometry x="395" y="390" width="120" height="60" as="geometry"/>
                </mxCell>
                <mxCell id="iLmhON-b7zHYLyRR5lnO-95" value="" style="group" parent="iLmhON-b7zHYLyRR5lnO-1" vertex="1" connectable="0">
                    <mxGeometry x="890" y="-130" width="190" height="910" as="geometry"/>
                </mxCell>
                <mxCell id="iLmhON-b7zHYLyRR5lnO-96" value="" style="whiteSpace=wrap;html=1;rounded=0;fontSize=12;strokeWidth=2;fillColor=#2a2a2a;verticalAlign=middle;" parent="iLmhON-b7zHYLyRR5lnO-95" vertex="1">
                    <mxGeometry y="-30" width="190" height="740.24" as="geometry"/>
                </mxCell>
                <mxCell id="iLmhON-b7zHYLyRR5lnO-97" value="Evaluate Net Imbalance of Transmission System" style="whiteSpace=wrap;html=1;rounded=0;fontSize=12;strokeWidth=2;fillColor=#2a2a2a;verticalAlign=middle;" parent="iLmhON-b7zHYLyRR5lnO-95" vertex="1">
                    <mxGeometry x="40" y="44.390243902439025" width="120" height="66.58536585365854" as="geometry"/>
                </mxCell>
                <mxCell id="iLmhON-b7zHYLyRR5lnO-98" value="Gen != Demand" style="rhombus;whiteSpace=wrap;html=1;rounded=0;fontSize=12;strokeWidth=2;fillColor=#2a2a2a;verticalAlign=middle;" parent="iLmhON-b7zHYLyRR5lnO-95" vertex="1">
                    <mxGeometry x="60" y="144.26829268292684" width="80" height="88.78048780487805" as="geometry"/>
                </mxCell>
                <mxCell id="iLmhON-b7zHYLyRR5lnO-99" style="edgeStyle=orthogonalEdgeStyle;rounded=0;jumpStyle=arc;orthogonalLoop=1;jettySize=auto;html=1;entryX=0.5;entryY=0;entryDx=0;entryDy=0;fontSize=12;startArrow=none;startFill=0;endArrow=classic;endFill=1;strokeWidth=1;" parent="iLmhON-b7zHYLyRR5lnO-95" source="iLmhON-b7zHYLyRR5lnO-97" target="iLmhON-b7zHYLyRR5lnO-98" edge="1">
                    <mxGeometry relative="1" as="geometry"/>
                </mxCell>
                <mxCell id="iLmhON-b7zHYLyRR5lnO-100" value="Recieve Bids and Offers to change PN from BMU's" style="whiteSpace=wrap;html=1;rounded=0;strokeWidth=2;" parent="iLmhON-b7zHYLyRR5lnO-95" vertex="1">
                    <mxGeometry x="40" y="277.4390243902439" width="120" height="66.58536585365854" as="geometry"/>
                </mxCell>
                <mxCell id="iLmhON-b7zHYLyRR5lnO-101" value="No" style="edgeStyle=orthogonalEdgeStyle;rounded=0;jumpStyle=arc;orthogonalLoop=1;jettySize=auto;html=1;fontSize=12;startArrow=none;startFill=0;endArrow=classic;endFill=1;strokeWidth=1;" parent="iLmhON-b7zHYLyRR5lnO-95" source="iLmhON-b7zHYLyRR5lnO-98" target="iLmhON-b7zHYLyRR5lnO-100" edge="1">
                    <mxGeometry relative="1" as="geometry"/>
                </mxCell>
                <mxCell id="iLmhON-b7zHYLyRR5lnO-102" style="edgeStyle=orthogonalEdgeStyle;rounded=0;jumpStyle=arc;orthogonalLoop=1;jettySize=auto;html=1;entryX=0;entryY=0.25;entryDx=0;entryDy=0;fontSize=12;startArrow=none;startFill=0;endArrow=classic;endFill=1;strokeWidth=1;exitX=0;exitY=0.5;exitDx=0;exitDy=0;" parent="iLmhON-b7zHYLyRR5lnO-95" source="iLmhON-b7zHYLyRR5lnO-104" target="iLmhON-b7zHYLyRR5lnO-100" edge="1">
                    <mxGeometry relative="1" as="geometry"/>
                </mxCell>
                <mxCell id="iLmhON-b7zHYLyRR5lnO-103" value="No" style="edgeLabel;html=1;align=center;verticalAlign=middle;resizable=0;points=[];fontSize=12;" parent="iLmhON-b7zHYLyRR5lnO-102" vertex="1" connectable="0">
                    <mxGeometry x="-0.5314" y="2" relative="1" as="geometry">
                        <mxPoint y="-38" as="offset"/>
                    </mxGeometry>
                </mxCell>
                <mxCell id="iLmhON-b7zHYLyRR5lnO-104" value="Does it Meet Technical Limitations?" style="rhombus;whiteSpace=wrap;html=1;rounded=0;fontSize=12;strokeWidth=2;fillColor=#2a2a2a;verticalAlign=middle;" parent="iLmhON-b7zHYLyRR5lnO-95" vertex="1">
                    <mxGeometry x="45" y="366.219512195122" width="110" height="110.97560975609757" as="geometry"/>
                </mxCell>
                <mxCell id="iLmhON-b7zHYLyRR5lnO-105" style="edgeStyle=orthogonalEdgeStyle;rounded=0;jumpStyle=arc;orthogonalLoop=1;jettySize=auto;html=1;entryX=0.5;entryY=0;entryDx=0;entryDy=0;fontSize=12;startArrow=none;startFill=0;endArrow=classic;endFill=1;strokeWidth=1;" parent="iLmhON-b7zHYLyRR5lnO-95" source="iLmhON-b7zHYLyRR5lnO-100" target="iLmhON-b7zHYLyRR5lnO-104" edge="1">
                    <mxGeometry relative="1" as="geometry"/>
                </mxCell>
                <mxCell id="iLmhON-b7zHYLyRR5lnO-106" value="Create Bid-Offer-Acceptance (BOAs)&amp;nbsp;" style="whiteSpace=wrap;html=1;rounded=0;strokeWidth=2;" parent="iLmhON-b7zHYLyRR5lnO-95" vertex="1">
                    <mxGeometry x="40" y="521.5853658536586" width="120" height="66.58536585365854" as="geometry"/>
                </mxCell>
                <mxCell id="iLmhON-b7zHYLyRR5lnO-107" value="Yes" style="edgeStyle=orthogonalEdgeStyle;rounded=0;jumpStyle=arc;orthogonalLoop=1;jettySize=auto;html=1;entryX=0.5;entryY=0;entryDx=0;entryDy=0;fontSize=12;startArrow=none;startFill=0;endArrow=classic;endFill=1;strokeWidth=1;" parent="iLmhON-b7zHYLyRR5lnO-95" source="iLmhON-b7zHYLyRR5lnO-104" target="iLmhON-b7zHYLyRR5lnO-106" edge="1">
                    <mxGeometry relative="1" as="geometry"/>
                </mxCell>
                <mxCell id="iLmhON-b7zHYLyRR5lnO-108" value="Submit to BSC" style="whiteSpace=wrap;html=1;rounded=0;strokeWidth=2;" parent="iLmhON-b7zHYLyRR5lnO-95" vertex="1">
                    <mxGeometry x="40" y="621.4634146341464" width="120" height="66.58536585365854" as="geometry"/>
                </mxCell>
                <mxCell id="iLmhON-b7zHYLyRR5lnO-109" value="Yes" style="edgeStyle=orthogonalEdgeStyle;rounded=0;jumpStyle=arc;orthogonalLoop=1;jettySize=auto;html=1;entryX=1;entryY=0.5;entryDx=0;entryDy=0;fontSize=12;startArrow=none;startFill=0;endArrow=classic;endFill=1;strokeWidth=1;" parent="iLmhON-b7zHYLyRR5lnO-95" source="iLmhON-b7zHYLyRR5lnO-98" target="iLmhON-b7zHYLyRR5lnO-108" edge="1">
                    <mxGeometry x="-0.9167" relative="1" as="geometry">
                        <Array as="points">
                            <mxPoint x="180" y="188.65853658536588"/>
                            <mxPoint x="180" y="654.7560975609757"/>
                        </Array>
                        <mxPoint as="offset"/>
                    </mxGeometry>
                </mxCell>
                <mxCell id="iLmhON-b7zHYLyRR5lnO-110" value="" style="edgeStyle=orthogonalEdgeStyle;rounded=0;jumpStyle=arc;orthogonalLoop=1;jettySize=auto;html=1;fontSize=12;startArrow=none;startFill=0;endArrow=classic;endFill=1;strokeWidth=1;" parent="iLmhON-b7zHYLyRR5lnO-95" source="iLmhON-b7zHYLyRR5lnO-106" target="iLmhON-b7zHYLyRR5lnO-108" edge="1">
                    <mxGeometry relative="1" as="geometry"/>
                </mxCell>
                <mxCell id="iLmhON-b7zHYLyRR5lnO-118" value="Balancing Services &lt;br&gt;Adjustment Data&lt;br&gt;(BSAD)" style="text;html=1;resizable=0;autosize=1;align=center;verticalAlign=middle;points=[];fillColor=none;strokeColor=none;rounded=0;fontSize=12;fontStyle=1" parent="iLmhON-b7zHYLyRR5lnO-95" vertex="1">
                    <mxGeometry x="35" y="-29.996341463414637" width="130" height="50" as="geometry"/>
                </mxCell>
                <mxCell id="iLmhON-b7zHYLyRR5lnO-119" style="edgeStyle=orthogonalEdgeStyle;rounded=0;jumpStyle=arc;orthogonalLoop=1;jettySize=auto;html=1;entryX=-0.021;entryY=0.215;entryDx=0;entryDy=0;entryPerimeter=0;fontSize=12;startArrow=none;startFill=0;endArrow=classic;endFill=1;strokeWidth=1;" parent="iLmhON-b7zHYLyRR5lnO-1" source="iLmhON-b7zHYLyRR5lnO-115" target="iLmhON-b7zHYLyRR5lnO-96" edge="1">
                    <mxGeometry relative="1" as="geometry"/>
                </mxCell>
                <mxCell id="iLmhON-b7zHYLyRR5lnO-115" value="Day Ahead" style="whiteSpace=wrap;html=1;rounded=0;fontSize=12;strokeWidth=2;fillColor=#2a2a2a;verticalAlign=middle;" parent="iLmhON-b7zHYLyRR5lnO-1" vertex="1">
                    <mxGeometry x="675" y="-30" width="120" height="60" as="geometry"/>
                </mxCell>
                <mxCell id="iLmhON-b7zHYLyRR5lnO-120" style="edgeStyle=orthogonalEdgeStyle;rounded=0;jumpStyle=arc;orthogonalLoop=1;jettySize=auto;html=1;entryX=-0.021;entryY=0.135;entryDx=0;entryDy=0;entryPerimeter=0;fontSize=12;startArrow=none;startFill=0;endArrow=classic;endFill=1;strokeWidth=1;" parent="iLmhON-b7zHYLyRR5lnO-1" source="iLmhON-b7zHYLyRR5lnO-116" target="iLmhON-b7zHYLyRR5lnO-96" edge="1">
                    <mxGeometry relative="1" as="geometry"/>
                </mxCell>
                <mxCell id="iLmhON-b7zHYLyRR5lnO-116" value="Month Ahead" style="whiteSpace=wrap;html=1;rounded=0;fontSize=12;strokeWidth=2;fillColor=#2a2a2a;verticalAlign=middle;" parent="iLmhON-b7zHYLyRR5lnO-1" vertex="1">
                    <mxGeometry x="675" y="-90" width="120" height="60" as="geometry"/>
                </mxCell>
                <mxCell id="iLmhON-b7zHYLyRR5lnO-121" style="edgeStyle=orthogonalEdgeStyle;rounded=0;jumpStyle=arc;orthogonalLoop=1;jettySize=auto;html=1;entryX=0;entryY=0.055;entryDx=0;entryDy=0;entryPerimeter=0;fontSize=12;startArrow=none;startFill=0;endArrow=classic;endFill=1;strokeWidth=1;" parent="iLmhON-b7zHYLyRR5lnO-1" source="iLmhON-b7zHYLyRR5lnO-117" target="iLmhON-b7zHYLyRR5lnO-96" edge="1">
                    <mxGeometry relative="1" as="geometry"/>
                </mxCell>
                <mxCell id="iLmhON-b7zHYLyRR5lnO-117" value="Year Ahead" style="whiteSpace=wrap;html=1;rounded=0;fontSize=12;strokeWidth=2;fillColor=#2a2a2a;verticalAlign=middle;" parent="iLmhON-b7zHYLyRR5lnO-1" vertex="1">
                    <mxGeometry x="675" y="-150" width="120" height="60" as="geometry"/>
                </mxCell>
            </root>
        </mxGraphModel>
    </diagram>
    <diagram id="L5ucuscWXHKHDCD9Y5l7" name="BSC System">
        <mxGraphModel dx="599" dy="540" grid="1" gridSize="10" guides="1" tooltips="1" connect="1" arrows="1" fold="1" page="1" pageScale="1" pageWidth="850" pageHeight="1100" math="0" shadow="0">
            <root>
                <mxCell id="FmxvjBAlDj4sEnKP7UAI-0"/>
                <mxCell id="FmxvjBAlDj4sEnKP7UAI-1" parent="FmxvjBAlDj4sEnKP7UAI-0"/>
                <mxCell id="FmxvjBAlDj4sEnKP7UAI-2" value="Energy Imbalance Price" style="whiteSpace=wrap;html=1;rounded=0;fontSize=12;strokeWidth=2;fillColor=#2a2a2a;verticalAlign=middle;" parent="FmxvjBAlDj4sEnKP7UAI-1" vertex="1">
                    <mxGeometry x="180" y="960" width="120" height="60" as="geometry"/>
                </mxCell>
                <mxCell id="FmxvjBAlDj4sEnKP7UAI-4" value="BSAD" style="whiteSpace=wrap;html=1;rounded=0;fontSize=12;strokeWidth=2;fillColor=#2a2a2a;verticalAlign=middle;" parent="FmxvjBAlDj4sEnKP7UAI-1" vertex="1">
                    <mxGeometry x="70" y="770" width="120" height="60" as="geometry"/>
                </mxCell>
                <mxCell id="FmxvjBAlDj4sEnKP7UAI-5" value="ABSVD" style="whiteSpace=wrap;html=1;rounded=0;fontSize=12;strokeWidth=2;fillColor=#2a2a2a;verticalAlign=middle;" parent="FmxvjBAlDj4sEnKP7UAI-1" vertex="1">
                    <mxGeometry x="160" y="860" width="120" height="60" as="geometry"/>
                </mxCell>
                <mxCell id="FmxvjBAlDj4sEnKP7UAI-6" value="Per Settlement Period" style="text;html=1;resizable=0;autosize=1;align=center;verticalAlign=middle;points=[];fillColor=none;strokeColor=none;rounded=0;fontSize=12;" parent="FmxvjBAlDj4sEnKP7UAI-1" vertex="1">
                    <mxGeometry x="265" y="80" width="130" height="20" as="geometry"/>
                </mxCell>
                <mxCell id="FmxvjBAlDj4sEnKP7UAI-11" value="Yes" style="edgeStyle=orthogonalEdgeStyle;rounded=0;jumpStyle=arc;orthogonalLoop=1;jettySize=auto;html=1;entryX=0.5;entryY=0;entryDx=0;entryDy=0;fontSize=12;startArrow=none;startFill=0;endArrow=classic;endFill=1;strokeWidth=1;" parent="FmxvjBAlDj4sEnKP7UAI-1" source="FmxvjBAlDj4sEnKP7UAI-7" target="FmxvjBAlDj4sEnKP7UAI-24" edge="1">
                    <mxGeometry relative="1" as="geometry">
                        <mxPoint x="270" y="400" as="targetPoint"/>
                    </mxGeometry>
                </mxCell>
                <mxCell id="FmxvjBAlDj4sEnKP7UAI-7" value="Is Transmission Short?&lt;span style=&quot;color: rgba(0 , 0 , 0 , 0) ; font-family: monospace ; font-size: 0px&quot;&gt;%3CmxGraphModel%3E%3Croot%3E%3CmxCell%20id%3D%220%22%2F%3E%3CmxCell%20id%3D%221%22%20parent%3D%220%22%2F%3E%3CmxCell%20id%3D%222%22%20value%3D%22BSAD%22%20style%3D%22whiteSpace%3Dwrap%3Bhtml%3D1%3Brounded%3D0%3BfontSize%3D12%3BstrokeWidth%3D2%3BfillColor%3D%232a2a2a%3BverticalAlign%3Dmiddle%3B%22%20vertex%3D%221%22%20parent%3D%221%22%3E%3CmxGeometry%20x%3D%22130%22%20y%3D%22250%22%20width%3D%22120%22%20height%3D%2260%22%20as%3D%22geometry%22%2F%3E%3C%2FmxCell%3E%3C%2Froot%3E%3C%2FmxGraphModel%3E&lt;/span&gt;" style="rhombus;whiteSpace=wrap;html=1;rounded=0;fontSize=12;strokeWidth=2;fillColor=#2a2a2a;verticalAlign=middle;" parent="FmxvjBAlDj4sEnKP7UAI-1" vertex="1">
                    <mxGeometry x="185" y="250" width="80" height="80" as="geometry"/>
                </mxCell>
                <mxCell id="FmxvjBAlDj4sEnKP7UAI-20" style="edgeStyle=orthogonalEdgeStyle;rounded=0;jumpStyle=arc;orthogonalLoop=1;jettySize=auto;html=1;entryX=0.5;entryY=0;entryDx=0;entryDy=0;fontSize=12;startArrow=none;startFill=0;endArrow=classic;endFill=1;strokeWidth=1;" parent="FmxvjBAlDj4sEnKP7UAI-1" source="FmxvjBAlDj4sEnKP7UAI-8" edge="1">
                    <mxGeometry relative="1" as="geometry">
                        <mxPoint x="550" y="400" as="targetPoint"/>
                    </mxGeometry>
                </mxCell>
                <mxCell id="FmxvjBAlDj4sEnKP7UAI-8" value="Is Transmission Long?&lt;span style=&quot;color: rgba(0 , 0 , 0 , 0) ; font-family: monospace ; font-size: 0px&quot;&gt;%3CmxGraphModel%3E%3Croot%3E%3CmxCell%20id%3D%220%22%2F%3E%3CmxCell%20id%3D%221%22%20parent%3D%220%22%2F%3E%3CmxCell%20id%3D%222%22%20value%3D%22BSAD%22%20style%3D%22whiteSpace%3Dwrap%3Bhtml%3D1%3Brounded%3D0%3BfontSize%3D12%3BstrokeWidth%3D2%3BfillColor%3D%232a2a2a%3BverticalAlign%3Dmiddle%3B%22%20vertex%3D%221%22%20parent%3D%221%22%3E%3CmxGeometry%20x%3D%22130%22%20y%3D%22250%22%20width%3D%22120%22%20height%3D%2260%22%20as%3D%22geometry%22%2F%3E%3C%2FmxCell%3E%3C%2Froot%3E%3C%2FmxGraphModel&lt;/span&gt;" style="rhombus;whiteSpace=wrap;html=1;rounded=0;fontSize=12;strokeWidth=2;fillColor=#2a2a2a;verticalAlign=middle;" parent="FmxvjBAlDj4sEnKP7UAI-1" vertex="1">
                    <mxGeometry x="510" y="270" width="80" height="80" as="geometry"/>
                </mxCell>
                <mxCell id="FmxvjBAlDj4sEnKP7UAI-10" style="edgeStyle=orthogonalEdgeStyle;rounded=0;jumpStyle=arc;orthogonalLoop=1;jettySize=auto;html=1;fontSize=12;startArrow=none;startFill=0;endArrow=classic;endFill=1;strokeWidth=1;entryX=0.5;entryY=0;entryDx=0;entryDy=0;" parent="FmxvjBAlDj4sEnKP7UAI-1" source="FmxvjBAlDj4sEnKP7UAI-9" target="FmxvjBAlDj4sEnKP7UAI-7" edge="1">
                    <mxGeometry relative="1" as="geometry">
                        <Array as="points">
                            <mxPoint x="405" y="230"/>
                            <mxPoint x="225" y="230"/>
                        </Array>
                    </mxGeometry>
                </mxCell>
                <mxCell id="FmxvjBAlDj4sEnKP7UAI-13" style="edgeStyle=orthogonalEdgeStyle;rounded=0;jumpStyle=arc;orthogonalLoop=1;jettySize=auto;html=1;entryX=0.5;entryY=0;entryDx=0;entryDy=0;fontSize=12;startArrow=none;startFill=0;endArrow=classic;endFill=1;strokeWidth=1;exitX=0.5;exitY=1;exitDx=0;exitDy=0;" parent="FmxvjBAlDj4sEnKP7UAI-1" source="FmxvjBAlDj4sEnKP7UAI-9" target="FmxvjBAlDj4sEnKP7UAI-8" edge="1">
                    <mxGeometry relative="1" as="geometry">
                        <Array as="points">
                            <mxPoint x="405" y="230"/>
                            <mxPoint x="550" y="230"/>
                        </Array>
                    </mxGeometry>
                </mxCell>
                <mxCell id="FmxvjBAlDj4sEnKP7UAI-9" value="Calculate Systems Overall Imbalance" style="whiteSpace=wrap;html=1;rounded=0;fontSize=12;strokeWidth=2;fillColor=#2a2a2a;verticalAlign=middle;" parent="FmxvjBAlDj4sEnKP7UAI-1" vertex="1">
                    <mxGeometry x="345" y="130" width="120" height="60" as="geometry"/>
                </mxCell>
                <mxCell id="FmxvjBAlDj4sEnKP7UAI-32" value="No" style="edgeStyle=orthogonalEdgeStyle;rounded=0;jumpStyle=arc;orthogonalLoop=1;jettySize=auto;html=1;entryX=0.5;entryY=0;entryDx=0;entryDy=0;fontSize=12;startArrow=none;startFill=0;endArrow=classic;endFill=1;strokeWidth=1;" parent="FmxvjBAlDj4sEnKP7UAI-1" source="FmxvjBAlDj4sEnKP7UAI-24" target="FmxvjBAlDj4sEnKP7UAI-31" edge="1">
                    <mxGeometry relative="1" as="geometry"/>
                </mxCell>
                <mxCell id="FmxvjBAlDj4sEnKP7UAI-34" value="Yes" style="edgeStyle=orthogonalEdgeStyle;rounded=0;jumpStyle=arc;orthogonalLoop=1;jettySize=auto;html=1;fontSize=12;startArrow=none;startFill=0;endArrow=classic;endFill=1;strokeWidth=1;entryX=0;entryY=0.25;entryDx=0;entryDy=0;" parent="FmxvjBAlDj4sEnKP7UAI-1" source="FmxvjBAlDj4sEnKP7UAI-24" target="FmxvjBAlDj4sEnKP7UAI-33" edge="1">
                    <mxGeometry relative="1" as="geometry"/>
                </mxCell>
                <mxCell id="FmxvjBAlDj4sEnKP7UAI-24" value="Offer To Decrease Demand?" style="rhombus;whiteSpace=wrap;html=1;rounded=0;fontSize=12;strokeWidth=2;fillColor=#2a2a2a;verticalAlign=middle;" parent="FmxvjBAlDj4sEnKP7UAI-1" vertex="1">
                    <mxGeometry x="185" y="400" width="80" height="80" as="geometry"/>
                </mxCell>
                <mxCell id="FmxvjBAlDj4sEnKP7UAI-35" value="Yes" style="edgeStyle=orthogonalEdgeStyle;rounded=0;jumpStyle=arc;orthogonalLoop=1;jettySize=auto;html=1;entryX=0;entryY=0.75;entryDx=0;entryDy=0;fontSize=12;startArrow=none;startFill=0;endArrow=classic;endFill=1;strokeWidth=1;" parent="FmxvjBAlDj4sEnKP7UAI-1" source="FmxvjBAlDj4sEnKP7UAI-31" target="FmxvjBAlDj4sEnKP7UAI-33" edge="1">
                    <mxGeometry relative="1" as="geometry"/>
                </mxCell>
                <mxCell id="FmxvjBAlDj4sEnKP7UAI-31" value="Offer to Increase Generation" style="rhombus;whiteSpace=wrap;html=1;rounded=0;fontSize=12;strokeWidth=2;fillColor=#2a2a2a;verticalAlign=middle;" parent="FmxvjBAlDj4sEnKP7UAI-1" vertex="1">
                    <mxGeometry x="185" y="520" width="80" height="80" as="geometry"/>
                </mxCell>
                <mxCell id="FmxvjBAlDj4sEnKP7UAI-44" style="edgeStyle=orthogonalEdgeStyle;rounded=0;jumpStyle=arc;orthogonalLoop=1;jettySize=auto;html=1;entryX=0;entryY=0.5;entryDx=0;entryDy=0;fontSize=12;startArrow=none;startFill=0;endArrow=classic;endFill=1;strokeWidth=1;" parent="FmxvjBAlDj4sEnKP7UAI-1" source="FmxvjBAlDj4sEnKP7UAI-33" target="FmxvjBAlDj4sEnKP7UAI-42" edge="1">
                    <mxGeometry relative="1" as="geometry"/>
                </mxCell>
                <mxCell id="FmxvjBAlDj4sEnKP7UAI-33" value="SO Accepts Offer" style="whiteSpace=wrap;html=1;rounded=0;strokeWidth=2;" parent="FmxvjBAlDj4sEnKP7UAI-1" vertex="1">
                    <mxGeometry x="320" y="470" width="120" height="60" as="geometry"/>
                </mxCell>
                <mxCell id="FmxvjBAlDj4sEnKP7UAI-36" value="No" style="edgeStyle=orthogonalEdgeStyle;rounded=0;jumpStyle=arc;orthogonalLoop=1;jettySize=auto;html=1;entryX=0.5;entryY=0;entryDx=0;entryDy=0;fontSize=12;startArrow=none;startFill=0;endArrow=classic;endFill=1;strokeWidth=1;" parent="FmxvjBAlDj4sEnKP7UAI-1" source="FmxvjBAlDj4sEnKP7UAI-38" target="FmxvjBAlDj4sEnKP7UAI-40" edge="1">
                    <mxGeometry relative="1" as="geometry"/>
                </mxCell>
                <mxCell id="FmxvjBAlDj4sEnKP7UAI-37" value="Yes" style="edgeStyle=orthogonalEdgeStyle;rounded=0;jumpStyle=arc;orthogonalLoop=1;jettySize=auto;html=1;fontSize=12;startArrow=none;startFill=0;endArrow=classic;endFill=1;strokeWidth=1;entryX=0;entryY=0.25;entryDx=0;entryDy=0;" parent="FmxvjBAlDj4sEnKP7UAI-1" source="FmxvjBAlDj4sEnKP7UAI-38" target="FmxvjBAlDj4sEnKP7UAI-41" edge="1">
                    <mxGeometry relative="1" as="geometry"/>
                </mxCell>
                <mxCell id="FmxvjBAlDj4sEnKP7UAI-38" value="Bid To Increase Demand?" style="rhombus;whiteSpace=wrap;html=1;rounded=0;fontSize=12;strokeWidth=2;fillColor=#2a2a2a;verticalAlign=middle;" parent="FmxvjBAlDj4sEnKP7UAI-1" vertex="1">
                    <mxGeometry x="510" y="400" width="80" height="80" as="geometry"/>
                </mxCell>
                <mxCell id="FmxvjBAlDj4sEnKP7UAI-39" value="Yes" style="edgeStyle=orthogonalEdgeStyle;rounded=0;jumpStyle=arc;orthogonalLoop=1;jettySize=auto;html=1;entryX=0;entryY=0.75;entryDx=0;entryDy=0;fontSize=12;startArrow=none;startFill=0;endArrow=classic;endFill=1;strokeWidth=1;" parent="FmxvjBAlDj4sEnKP7UAI-1" source="FmxvjBAlDj4sEnKP7UAI-40" target="FmxvjBAlDj4sEnKP7UAI-41" edge="1">
                    <mxGeometry relative="1" as="geometry"/>
                </mxCell>
                <mxCell id="FmxvjBAlDj4sEnKP7UAI-40" value="Bid to &lt;br&gt;Reduce Generation?" style="rhombus;whiteSpace=wrap;html=1;rounded=0;fontSize=12;strokeWidth=2;fillColor=#2a2a2a;verticalAlign=middle;" parent="FmxvjBAlDj4sEnKP7UAI-1" vertex="1">
                    <mxGeometry x="510" y="520" width="80" height="80" as="geometry"/>
                </mxCell>
                <mxCell id="FmxvjBAlDj4sEnKP7UAI-43" style="edgeStyle=orthogonalEdgeStyle;rounded=0;jumpStyle=arc;orthogonalLoop=1;jettySize=auto;html=1;entryX=1;entryY=0.5;entryDx=0;entryDy=0;fontSize=12;startArrow=none;startFill=0;endArrow=classic;endFill=1;strokeWidth=1;" parent="FmxvjBAlDj4sEnKP7UAI-1" source="FmxvjBAlDj4sEnKP7UAI-41" target="FmxvjBAlDj4sEnKP7UAI-42" edge="1">
                    <mxGeometry relative="1" as="geometry">
                        <Array as="points">
                            <mxPoint x="710" y="690"/>
                        </Array>
                    </mxGeometry>
                </mxCell>
                <mxCell id="FmxvjBAlDj4sEnKP7UAI-41" value="SO Accepts Bid" style="whiteSpace=wrap;html=1;rounded=0;strokeWidth=2;" parent="FmxvjBAlDj4sEnKP7UAI-1" vertex="1">
                    <mxGeometry x="645" y="470" width="120" height="60" as="geometry"/>
                </mxCell>
                <mxCell id="FmxvjBAlDj4sEnKP7UAI-42" value="SO Creates a BOA" style="whiteSpace=wrap;html=1;rounded=0;strokeWidth=2;" parent="FmxvjBAlDj4sEnKP7UAI-1" vertex="1">
                    <mxGeometry x="500" y="660" width="120" height="60" as="geometry"/>
                </mxCell>
                <mxCell id="FmxvjBAlDj4sEnKP7UAI-45" value="Energy Imbalance Volume = Energy-(Balancing Services + Contracts)" style="text;html=1;resizable=0;autosize=1;align=center;verticalAlign=middle;points=[];fillColor=none;strokeColor=none;rounded=0;fontSize=12;" parent="FmxvjBAlDj4sEnKP7UAI-1" vertex="1">
                    <mxGeometry x="390" y="790" width="390" height="20" as="geometry"/>
                </mxCell>
                <mxCell id="FmxvjBAlDj4sEnKP7UAI-46" value="Energy Imbalance Cashflow = Imbalance Volume x Imbalance Price" style="text;html=1;resizable=0;autosize=1;align=center;verticalAlign=middle;points=[];fillColor=none;strokeColor=none;rounded=0;fontSize=12;" parent="FmxvjBAlDj4sEnKP7UAI-1" vertex="1">
                    <mxGeometry x="395" y="830" width="380" height="20" as="geometry"/>
                </mxCell>
                <mxCell id="FmxvjBAlDj4sEnKP7UAI-47" value="" style="shape=table;html=1;whiteSpace=wrap;startSize=0;container=1;collapsible=0;childLayout=tableLayout;" parent="FmxvjBAlDj4sEnKP7UAI-1" vertex="1">
                    <mxGeometry x="400" y="890" width="390" height="120" as="geometry"/>
                </mxCell>
                <mxCell id="FmxvjBAlDj4sEnKP7UAI-48" value="" style="shape=partialRectangle;html=1;whiteSpace=wrap;collapsible=0;dropTarget=0;pointerEvents=0;fillColor=none;top=0;left=0;bottom=0;right=0;points=[[0,0.5],[1,0.5]];portConstraint=eastwest;" parent="FmxvjBAlDj4sEnKP7UAI-47" vertex="1">
                    <mxGeometry width="390" height="40" as="geometry"/>
                </mxCell>
                <mxCell id="FmxvjBAlDj4sEnKP7UAI-49" value="" style="shape=partialRectangle;html=1;whiteSpace=wrap;connectable=0;overflow=hidden;fillColor=none;top=0;left=0;bottom=0;right=0;" parent="FmxvjBAlDj4sEnKP7UAI-48" vertex="1">
                    <mxGeometry width="130" height="40" as="geometry"/>
                </mxCell>
                <mxCell id="FmxvjBAlDj4sEnKP7UAI-50" value="Supplier" style="shape=partialRectangle;html=1;whiteSpace=wrap;connectable=0;overflow=hidden;fillColor=none;top=0;left=0;bottom=0;right=0;" parent="FmxvjBAlDj4sEnKP7UAI-48" vertex="1">
                    <mxGeometry x="130" width="130" height="40" as="geometry"/>
                </mxCell>
                <mxCell id="FmxvjBAlDj4sEnKP7UAI-51" value="Generator" style="shape=partialRectangle;html=1;whiteSpace=wrap;connectable=0;overflow=hidden;fillColor=none;top=0;left=0;bottom=0;right=0;" parent="FmxvjBAlDj4sEnKP7UAI-48" vertex="1">
                    <mxGeometry x="260" width="130" height="40" as="geometry"/>
                </mxCell>
                <mxCell id="FmxvjBAlDj4sEnKP7UAI-52" value="" style="shape=partialRectangle;html=1;whiteSpace=wrap;collapsible=0;dropTarget=0;pointerEvents=0;fillColor=none;top=0;left=0;bottom=0;right=0;points=[[0,0.5],[1,0.5]];portConstraint=eastwest;" parent="FmxvjBAlDj4sEnKP7UAI-47" vertex="1">
                    <mxGeometry y="40" width="390" height="40" as="geometry"/>
                </mxCell>
                <mxCell id="FmxvjBAlDj4sEnKP7UAI-53" value="System Sell Price (SPP)" style="shape=partialRectangle;html=1;whiteSpace=wrap;connectable=0;overflow=hidden;fillColor=none;top=0;left=0;bottom=0;right=0;" parent="FmxvjBAlDj4sEnKP7UAI-52" vertex="1">
                    <mxGeometry width="130" height="40" as="geometry"/>
                </mxCell>
                <mxCell id="FmxvjBAlDj4sEnKP7UAI-54" value="Paid if under consume" style="shape=partialRectangle;html=1;whiteSpace=wrap;connectable=0;overflow=hidden;fillColor=none;top=0;left=0;bottom=0;right=0;" parent="FmxvjBAlDj4sEnKP7UAI-52" vertex="1">
                    <mxGeometry x="130" width="130" height="40" as="geometry"/>
                </mxCell>
                <mxCell id="FmxvjBAlDj4sEnKP7UAI-55" value="Paid if over generate" style="shape=partialRectangle;html=1;whiteSpace=wrap;connectable=0;overflow=hidden;fillColor=none;top=0;left=0;bottom=0;right=0;" parent="FmxvjBAlDj4sEnKP7UAI-52" vertex="1">
                    <mxGeometry x="260" width="130" height="40" as="geometry"/>
                </mxCell>
                <mxCell id="FmxvjBAlDj4sEnKP7UAI-56" value="" style="shape=partialRectangle;html=1;whiteSpace=wrap;collapsible=0;dropTarget=0;pointerEvents=0;fillColor=none;top=0;left=0;bottom=0;right=0;points=[[0,0.5],[1,0.5]];portConstraint=eastwest;" parent="FmxvjBAlDj4sEnKP7UAI-47" vertex="1">
                    <mxGeometry y="80" width="390" height="40" as="geometry"/>
                </mxCell>
                <mxCell id="FmxvjBAlDj4sEnKP7UAI-57" value="System Buy Price (SBP)" style="shape=partialRectangle;html=1;whiteSpace=wrap;connectable=0;overflow=hidden;fillColor=none;top=0;left=0;bottom=0;right=0;" parent="FmxvjBAlDj4sEnKP7UAI-56" vertex="1">
                    <mxGeometry width="130" height="40" as="geometry"/>
                </mxCell>
                <mxCell id="FmxvjBAlDj4sEnKP7UAI-58" value="Pay if over consume" style="shape=partialRectangle;html=1;whiteSpace=wrap;connectable=0;overflow=hidden;fillColor=none;top=0;left=0;bottom=0;right=0;" parent="FmxvjBAlDj4sEnKP7UAI-56" vertex="1">
                    <mxGeometry x="130" width="130" height="40" as="geometry"/>
                </mxCell>
                <mxCell id="FmxvjBAlDj4sEnKP7UAI-59" value="Pay if under generate" style="shape=partialRectangle;html=1;whiteSpace=wrap;connectable=0;overflow=hidden;fillColor=none;top=0;left=0;bottom=0;right=0;" parent="FmxvjBAlDj4sEnKP7UAI-56" vertex="1">
                    <mxGeometry x="260" width="130" height="40" as="geometry"/>
                </mxCell>
                <mxCell id="FmxvjBAlDj4sEnKP7UAI-60" value="Balancing Services Adjustment Actions" style="whiteSpace=wrap;html=1;rounded=0;strokeWidth=2;" parent="FmxvjBAlDj4sEnKP7UAI-1" vertex="1">
                    <mxGeometry x="225" y="660" width="120" height="60" as="geometry"/>
                </mxCell>
                <mxCell id="FmxvjBAlDj4sEnKP7UAI-61" value="Demand Control Actions" style="whiteSpace=wrap;html=1;rounded=0;strokeWidth=2;" parent="FmxvjBAlDj4sEnKP7UAI-1" vertex="1">
                    <mxGeometry x="225" y="730" width="120" height="60" as="geometry"/>
                </mxCell>
            </root>
        </mxGraphModel>
    </diagram>
    <diagram id="lUUA0ljoaovKKPQnVe2j" name="Page-6">
        <mxGraphModel dx="599" dy="-560" grid="1" gridSize="10" guides="1" tooltips="1" connect="1" arrows="1" fold="1" page="1" pageScale="1" pageWidth="850" pageHeight="1100" math="0" shadow="0">
            <root>
                <mxCell id="nOybqrVy57lX-zlCPAg5-0"/>
                <mxCell id="nOybqrVy57lX-zlCPAg5-1" parent="nOybqrVy57lX-zlCPAg5-0"/>
                <mxCell id="nOybqrVy57lX-zlCPAg5-4" value="" style="edgeStyle=orthogonalEdgeStyle;curved=1;rounded=0;jumpStyle=arc;orthogonalLoop=1;jettySize=auto;html=1;fontSize=12;startArrow=none;startFill=0;endArrow=classic;endFill=1;strokeWidth=1;" parent="nOybqrVy57lX-zlCPAg5-1" source="nOybqrVy57lX-zlCPAg5-2" target="nOybqrVy57lX-zlCPAg5-3" edge="1">
                    <mxGeometry relative="1" as="geometry"/>
                </mxCell>
                <mxCell id="nOybqrVy57lX-zlCPAg5-2" value="Register" style="ellipse;whiteSpace=wrap;html=1;fontSize=12;strokeWidth=2;verticalAlign=middle;strokeColor=#6D1F00;fillColor=#a0522d;fontColor=#ffffff;" parent="nOybqrVy57lX-zlCPAg5-1" vertex="1">
                    <mxGeometry x="250" y="1170" width="80" height="80" as="geometry"/>
                </mxCell>
                <mxCell id="nOybqrVy57lX-zlCPAg5-6" value="" style="edgeStyle=orthogonalEdgeStyle;curved=1;rounded=0;jumpStyle=arc;orthogonalLoop=1;jettySize=auto;html=1;fontSize=12;startArrow=none;startFill=0;endArrow=classic;endFill=1;strokeWidth=1;" parent="nOybqrVy57lX-zlCPAg5-1" source="nOybqrVy57lX-zlCPAg5-3" target="nOybqrVy57lX-zlCPAg5-5" edge="1">
                    <mxGeometry relative="1" as="geometry"/>
                </mxCell>
                <mxCell id="nOybqrVy57lX-zlCPAg5-3" value="Get Starting Settlement Period Informaiton" style="ellipse;whiteSpace=wrap;html=1;fontSize=12;strokeWidth=2;verticalAlign=middle;strokeColor=#6D1F00;fillColor=#a0522d;fontColor=#ffffff;" parent="nOybqrVy57lX-zlCPAg5-1" vertex="1">
                    <mxGeometry x="410" y="1170" width="80" height="80" as="geometry"/>
                </mxCell>
                <mxCell id="nOybqrVy57lX-zlCPAg5-8" value="" style="edgeStyle=orthogonalEdgeStyle;curved=1;rounded=0;jumpStyle=arc;orthogonalLoop=1;jettySize=auto;html=1;fontSize=12;startArrow=none;startFill=0;endArrow=classic;endFill=1;strokeWidth=1;" parent="nOybqrVy57lX-zlCPAg5-1" source="nOybqrVy57lX-zlCPAg5-5" target="nOybqrVy57lX-zlCPAg5-7" edge="1">
                    <mxGeometry relative="1" as="geometry"/>
                </mxCell>
                <mxCell id="nOybqrVy57lX-zlCPAg5-5" value="Pub/Bid Begins for SP" style="ellipse;whiteSpace=wrap;html=1;fontSize=12;strokeWidth=2;verticalAlign=middle;strokeColor=#6D1F00;fillColor=#a0522d;fontColor=#ffffff;" parent="nOybqrVy57lX-zlCPAg5-1" vertex="1">
                    <mxGeometry x="410" y="1460" width="80" height="80" as="geometry"/>
                </mxCell>
                <mxCell id="nOybqrVy57lX-zlCPAg5-10" value="" style="edgeStyle=orthogonalEdgeStyle;curved=1;rounded=0;jumpStyle=arc;orthogonalLoop=1;jettySize=auto;html=1;fontSize=12;startArrow=none;startFill=0;endArrow=classic;endFill=1;strokeWidth=1;" parent="nOybqrVy57lX-zlCPAg5-1" source="nOybqrVy57lX-zlCPAg5-7" target="nOybqrVy57lX-zlCPAg5-9" edge="1">
                    <mxGeometry relative="1" as="geometry"/>
                </mxCell>
                <mxCell id="nOybqrVy57lX-zlCPAg5-7" value="Determine energy demand for SP" style="ellipse;whiteSpace=wrap;html=1;fontSize=12;strokeWidth=2;verticalAlign=middle;strokeColor=#6D1F00;fillColor=#a0522d;fontColor=#ffffff;" parent="nOybqrVy57lX-zlCPAg5-1" vertex="1">
                    <mxGeometry x="410" y="1620" width="80" height="80" as="geometry"/>
                </mxCell>
                <mxCell id="nOybqrVy57lX-zlCPAg5-12" value="" style="edgeStyle=orthogonalEdgeStyle;curved=1;rounded=0;jumpStyle=arc;orthogonalLoop=1;jettySize=auto;html=1;fontSize=12;startArrow=none;startFill=0;endArrow=classic;endFill=1;strokeWidth=1;entryX=0.5;entryY=1;entryDx=0;entryDy=0;exitX=0.5;exitY=1;exitDx=0;exitDy=0;" parent="nOybqrVy57lX-zlCPAg5-1" source="nOybqrVy57lX-zlCPAg5-9" target="nOybqrVy57lX-zlCPAg5-11" edge="1">
                    <mxGeometry relative="1" as="geometry"/>
                </mxCell>
                <mxCell id="nOybqrVy57lX-zlCPAg5-9" value="Publish demand for&amp;nbsp; SP" style="ellipse;whiteSpace=wrap;html=1;fontSize=12;strokeWidth=2;verticalAlign=middle;strokeColor=#6D1F00;fillColor=#a0522d;fontColor=#ffffff;" parent="nOybqrVy57lX-zlCPAg5-1" vertex="1">
                    <mxGeometry x="410" y="1770" width="80" height="80" as="geometry"/>
                </mxCell>
                <mxCell id="nOybqrVy57lX-zlCPAg5-16" value="" style="edgeStyle=orthogonalEdgeStyle;curved=1;rounded=0;jumpStyle=arc;orthogonalLoop=1;jettySize=auto;html=1;fontSize=12;startArrow=none;startFill=0;endArrow=classic;endFill=1;strokeWidth=1;" parent="nOybqrVy57lX-zlCPAg5-1" source="nOybqrVy57lX-zlCPAg5-11" target="nOybqrVy57lX-zlCPAg5-15" edge="1">
                    <mxGeometry relative="1" as="geometry"/>
                </mxCell>
                <mxCell id="nOybqrVy57lX-zlCPAg5-11" value="Wait for Offers" style="ellipse;whiteSpace=wrap;html=1;fontSize=12;strokeWidth=2;verticalAlign=middle;strokeColor=#6D1F00;fillColor=#a0522d;fontColor=#ffffff;" parent="nOybqrVy57lX-zlCPAg5-1" vertex="1">
                    <mxGeometry x="250" y="1810" width="80" height="80" as="geometry"/>
                </mxCell>
                <mxCell id="nOybqrVy57lX-zlCPAg5-17" style="edgeStyle=orthogonalEdgeStyle;curved=1;rounded=0;jumpStyle=arc;orthogonalLoop=1;jettySize=auto;html=1;entryX=0;entryY=0.5;entryDx=0;entryDy=0;fontSize=12;startArrow=none;startFill=0;endArrow=classic;endFill=1;strokeWidth=1;" parent="nOybqrVy57lX-zlCPAg5-1" source="nOybqrVy57lX-zlCPAg5-13" target="nOybqrVy57lX-zlCPAg5-15" edge="1">
                    <mxGeometry relative="1" as="geometry"/>
                </mxCell>
                <mxCell id="nOybqrVy57lX-zlCPAg5-13" value="Get Default offer from Utility" style="ellipse;whiteSpace=wrap;html=1;fontSize=12;strokeWidth=2;verticalAlign=middle;strokeColor=#6D1F00;fillColor=#a0522d;fontColor=#ffffff;" parent="nOybqrVy57lX-zlCPAg5-1" vertex="1">
                    <mxGeometry x="80" y="1680" width="80" height="80" as="geometry"/>
                </mxCell>
                <mxCell id="nOybqrVy57lX-zlCPAg5-21" value="" style="edgeStyle=orthogonalEdgeStyle;curved=1;rounded=0;jumpStyle=arc;orthogonalLoop=1;jettySize=auto;html=1;fontSize=12;startArrow=none;startFill=0;endArrow=classic;endFill=1;strokeWidth=1;" parent="nOybqrVy57lX-zlCPAg5-1" source="nOybqrVy57lX-zlCPAg5-15" target="nOybqrVy57lX-zlCPAg5-20" edge="1">
                    <mxGeometry relative="1" as="geometry"/>
                </mxCell>
                <mxCell id="nOybqrVy57lX-zlCPAg5-15" value="Asses offers" style="ellipse;whiteSpace=wrap;html=1;fontSize=12;strokeWidth=2;verticalAlign=middle;strokeColor=#6D1F00;fillColor=#a0522d;fontColor=#ffffff;" parent="nOybqrVy57lX-zlCPAg5-1" vertex="1">
                    <mxGeometry x="250" y="1680" width="80" height="80" as="geometry"/>
                </mxCell>
                <mxCell id="nOybqrVy57lX-zlCPAg5-19" style="edgeStyle=orthogonalEdgeStyle;curved=1;rounded=0;jumpStyle=arc;orthogonalLoop=1;jettySize=auto;html=1;entryX=0;entryY=1;entryDx=0;entryDy=0;fontSize=12;startArrow=none;startFill=0;endArrow=classic;endFill=1;strokeWidth=1;" parent="nOybqrVy57lX-zlCPAg5-1" source="nOybqrVy57lX-zlCPAg5-18" target="nOybqrVy57lX-zlCPAg5-15" edge="1">
                    <mxGeometry relative="1" as="geometry"/>
                </mxCell>
                <mxCell id="nOybqrVy57lX-zlCPAg5-18" value="Get offers for more affordable energy" style="ellipse;whiteSpace=wrap;html=1;fontSize=12;strokeWidth=2;verticalAlign=middle;strokeColor=#6D1F00;fillColor=#a0522d;fontColor=#ffffff;" parent="nOybqrVy57lX-zlCPAg5-1" vertex="1">
                    <mxGeometry x="80" y="1770" width="80" height="80" as="geometry"/>
                </mxCell>
                <mxCell id="nOybqrVy57lX-zlCPAg5-23" value="" style="edgeStyle=orthogonalEdgeStyle;curved=1;rounded=0;jumpStyle=arc;orthogonalLoop=1;jettySize=auto;html=1;fontSize=12;startArrow=none;startFill=0;endArrow=classic;endFill=1;strokeWidth=1;" parent="nOybqrVy57lX-zlCPAg5-1" source="nOybqrVy57lX-zlCPAg5-20" target="nOybqrVy57lX-zlCPAg5-22" edge="1">
                    <mxGeometry relative="1" as="geometry"/>
                </mxCell>
                <mxCell id="nOybqrVy57lX-zlCPAg5-20" value="Approve of Offer / Request Contract" style="ellipse;whiteSpace=wrap;html=1;fontSize=12;strokeWidth=2;verticalAlign=middle;strokeColor=#6D1F00;fillColor=#a0522d;fontColor=#ffffff;" parent="nOybqrVy57lX-zlCPAg5-1" vertex="1">
                    <mxGeometry x="250" y="1520" width="80" height="80" as="geometry"/>
                </mxCell>
                <mxCell id="nOybqrVy57lX-zlCPAg5-25" value="" style="edgeStyle=orthogonalEdgeStyle;curved=1;rounded=0;jumpStyle=arc;orthogonalLoop=1;jettySize=auto;html=1;fontSize=12;startArrow=none;startFill=0;endArrow=classic;endFill=1;strokeWidth=1;" parent="nOybqrVy57lX-zlCPAg5-1" source="nOybqrVy57lX-zlCPAg5-22" target="nOybqrVy57lX-zlCPAg5-24" edge="1">
                    <mxGeometry relative="1" as="geometry"/>
                </mxCell>
                <mxCell id="nOybqrVy57lX-zlCPAg5-22" value="Submit Contract" style="ellipse;whiteSpace=wrap;html=1;fontSize=12;strokeWidth=2;verticalAlign=middle;strokeColor=#6D1F00;fillColor=#a0522d;fontColor=#ffffff;" parent="nOybqrVy57lX-zlCPAg5-1" vertex="1">
                    <mxGeometry x="250" y="1390" width="80" height="80" as="geometry"/>
                </mxCell>
                <mxCell id="nOybqrVy57lX-zlCPAg5-26" style="edgeStyle=orthogonalEdgeStyle;curved=1;rounded=0;jumpStyle=arc;orthogonalLoop=1;jettySize=auto;html=1;entryX=0;entryY=0;entryDx=0;entryDy=0;fontSize=12;startArrow=none;startFill=0;endArrow=classic;endFill=1;strokeWidth=1;" parent="nOybqrVy57lX-zlCPAg5-1" source="nOybqrVy57lX-zlCPAg5-24" target="nOybqrVy57lX-zlCPAg5-5" edge="1">
                    <mxGeometry relative="1" as="geometry"/>
                </mxCell>
                <mxCell id="nOybqrVy57lX-zlCPAg5-28" style="edgeStyle=orthogonalEdgeStyle;curved=1;rounded=0;jumpStyle=arc;orthogonalLoop=1;jettySize=auto;html=1;fontSize=12;startArrow=none;startFill=0;endArrow=classic;endFill=1;strokeWidth=1;shape=flexArrow;" parent="nOybqrVy57lX-zlCPAg5-1" source="nOybqrVy57lX-zlCPAg5-24" target="nOybqrVy57lX-zlCPAg5-27" edge="1">
                    <mxGeometry relative="1" as="geometry"/>
                </mxCell>
                <mxCell id="nOybqrVy57lX-zlCPAg5-24" value="Gate Closure" style="ellipse;whiteSpace=wrap;html=1;fontSize=12;strokeWidth=2;verticalAlign=middle;strokeColor=#6D1F00;fillColor=#a0522d;fontColor=#ffffff;" parent="nOybqrVy57lX-zlCPAg5-1" vertex="1">
                    <mxGeometry x="250" y="1290" width="80" height="80" as="geometry"/>
                </mxCell>
                <mxCell id="nOybqrVy57lX-zlCPAg5-30" value="" style="edgeStyle=orthogonalEdgeStyle;curved=1;rounded=0;jumpStyle=arc;orthogonalLoop=1;jettySize=auto;html=1;fontSize=12;startArrow=none;startFill=0;endArrow=classic;endFill=1;strokeWidth=1;" parent="nOybqrVy57lX-zlCPAg5-1" source="nOybqrVy57lX-zlCPAg5-27" target="nOybqrVy57lX-zlCPAg5-29" edge="1">
                    <mxGeometry relative="1" as="geometry"/>
                </mxCell>
                <mxCell id="nOybqrVy57lX-zlCPAg5-27" value="Start of Energy Exchange" style="ellipse;whiteSpace=wrap;html=1;fontSize=12;strokeWidth=2;verticalAlign=middle;strokeColor=#314354;fillColor=#647687;fontColor=#ffffff;" parent="nOybqrVy57lX-zlCPAg5-1" vertex="1">
                    <mxGeometry x="570" y="1290" width="80" height="80" as="geometry"/>
                </mxCell>
                <mxCell id="nOybqrVy57lX-zlCPAg5-32" value="" style="edgeStyle=orthogonalEdgeStyle;curved=1;rounded=0;jumpStyle=arc;orthogonalLoop=1;jettySize=auto;html=1;fontSize=12;startArrow=none;startFill=0;endArrow=classic;endFill=1;strokeWidth=1;" parent="nOybqrVy57lX-zlCPAg5-1" source="nOybqrVy57lX-zlCPAg5-29" target="nOybqrVy57lX-zlCPAg5-31" edge="1">
                    <mxGeometry relative="1" as="geometry"/>
                </mxCell>
                <mxCell id="nOybqrVy57lX-zlCPAg5-29" value="Consume Energy" style="ellipse;whiteSpace=wrap;html=1;fontSize=12;strokeWidth=2;verticalAlign=middle;strokeColor=#314354;fillColor=#647687;fontColor=#ffffff;" parent="nOybqrVy57lX-zlCPAg5-1" vertex="1">
                    <mxGeometry x="570" y="1450" width="80" height="80" as="geometry"/>
                </mxCell>
                <mxCell id="nOybqrVy57lX-zlCPAg5-34" value="" style="edgeStyle=orthogonalEdgeStyle;curved=1;rounded=0;jumpStyle=arc;orthogonalLoop=1;jettySize=auto;html=1;fontSize=12;startArrow=none;startFill=0;endArrow=classic;endFill=1;strokeWidth=1;" parent="nOybqrVy57lX-zlCPAg5-1" source="nOybqrVy57lX-zlCPAg5-31" target="nOybqrVy57lX-zlCPAg5-33" edge="1">
                    <mxGeometry relative="1" as="geometry"/>
                </mxCell>
                <mxCell id="nOybqrVy57lX-zlCPAg5-31" value="End of Exchange Period" style="ellipse;whiteSpace=wrap;html=1;fontSize=12;strokeWidth=2;verticalAlign=middle;strokeColor=#314354;fillColor=#647687;fontColor=#ffffff;" parent="nOybqrVy57lX-zlCPAg5-1" vertex="1">
                    <mxGeometry x="570" y="1610" width="80" height="80" as="geometry"/>
                </mxCell>
                <mxCell id="nOybqrVy57lX-zlCPAg5-36" value="" style="edgeStyle=orthogonalEdgeStyle;curved=1;rounded=0;jumpStyle=arc;orthogonalLoop=1;jettySize=auto;html=1;fontSize=12;startArrow=none;startFill=0;endArrow=classic;endFill=1;strokeWidth=1;" parent="nOybqrVy57lX-zlCPAg5-1" source="nOybqrVy57lX-zlCPAg5-33" target="nOybqrVy57lX-zlCPAg5-35" edge="1">
                    <mxGeometry relative="1" as="geometry"/>
                </mxCell>
                <mxCell id="nOybqrVy57lX-zlCPAg5-33" value="Collect Smart Meter usage" style="ellipse;whiteSpace=wrap;html=1;fontSize=12;strokeWidth=2;verticalAlign=middle;strokeColor=#314354;fillColor=#647687;fontColor=#ffffff;" parent="nOybqrVy57lX-zlCPAg5-1" vertex="1">
                    <mxGeometry x="570" y="1770" width="80" height="80" as="geometry"/>
                </mxCell>
                <mxCell id="nOybqrVy57lX-zlCPAg5-35" value="Under/Over Consumption" style="ellipse;whiteSpace=wrap;html=1;fontSize=12;strokeWidth=2;verticalAlign=middle;strokeColor=#314354;fillColor=#647687;fontColor=#ffffff;" parent="nOybqrVy57lX-zlCPAg5-1" vertex="1">
                    <mxGeometry x="730" y="1770" width="80" height="80" as="geometry"/>
                </mxCell>
            </root>
        </mxGraphModel>
    </diagram>
</mxfile>